<svg xmlns="http://www.w3.org/2000/svg" xmlns:xlink="http://www.w3.org/1999/xlink" fill="none" version="1.1" width="2570" height="1434" viewBox="0 0 2570 1434"><defs><clipPath id="master_svg0_3_0166"><rect x="-4" y="-4" width="2578" height="1442" rx="0"/></clipPath><linearGradient x1="0.5" y1="-2.170111656188965" x2="0.5" y2="1" id="master_svg1_3_894"><stop offset="0%" stop-color="#515052" stop-opacity="1"/><stop offset="100%" stop-color="#2B2A2B" stop-opacity="1"/></linearGradient><linearGradient x1="0.5" y1="0" x2="0.5" y2="1" id="master_svg2_3_0111"><stop offset="0%" stop-color="#B2B2B2" stop-opacity="1"/><stop offset="100%" stop-color="#1D1D1D" stop-opacity="1"/></linearGradient><linearGradient x1="0.5" y1="0" x2="0.5" y2="1" id="master_svg3_3_0111"><stop offset="0%" stop-color="#B2B2B2" stop-opacity="1"/><stop offset="100%" stop-color="#1D1D1D" stop-opacity="1"/></linearGradient><linearGradient x1="0.5" y1="-2.170111656188965" x2="0.5" y2="1" id="master_svg4_3_907"><stop offset="0%" stop-color="#515052" stop-opacity="1"/><stop offset="100%" stop-color="#2B2A2B" stop-opacity="1"/></linearGradient><linearGradient x1="0.5" y1="0" x2="0.5" y2="1" id="master_svg5_3_0111"><stop offset="0%" stop-color="#B2B2B2" stop-opacity="1"/><stop offset="100%" stop-color="#1D1D1D" stop-opacity="1"/></linearGradient><linearGradient x1="0.5" y1="-2.170111656188965" x2="0.5" y2="1" id="master_svg6_3_907"><stop offset="0%" stop-color="#515052" stop-opacity="1"/><stop offset="100%" stop-color="#2B2A2B" stop-opacity="1"/></linearGradient><linearGradient x1="0.5" y1="0" x2="0.5" y2="1" id="master_svg7_3_0111"><stop offset="0%" stop-color="#B2B2B2" stop-opacity="1"/><stop offset="100%" stop-color="#1D1D1D" stop-opacity="1"/></linearGradient><linearGradient x1="0.5" y1="-2.170111656188965" x2="0.5" y2="1" id="master_svg8_3_907"><stop offset="0%" stop-color="#515052" stop-opacity="1"/><stop offset="100%" stop-color="#2B2A2B" stop-opacity="1"/></linearGradient><linearGradient x1="0.5" y1="0" x2="0.5" y2="1" id="master_svg9_3_0111"><stop offset="0%" stop-color="#B2B2B2" stop-opacity="1"/><stop offset="100%" stop-color="#1D1D1D" stop-opacity="1"/></linearGradient><linearGradient x1="0.5" y1="-2.170111656188965" x2="0.5" y2="1" id="master_svga_3_907"><stop offset="0%" stop-color="#515052" stop-opacity="1"/><stop offset="100%" stop-color="#2B2A2B" stop-opacity="1"/></linearGradient><linearGradient x1="0.5" y1="0" x2="0.5" y2="1" id="master_svgb_3_0111"><stop offset="0%" stop-color="#B2B2B2" stop-opacity="1"/><stop offset="100%" stop-color="#1D1D1D" stop-opacity="1"/></linearGradient></defs><g clip-path="url(#master_svg0_3_0166)"><line x1="1282" y1="469" x2="1389" y2="469" fill-opacity="0" stroke-opacity="1" stroke="#01D47B" fill="none" stroke-width="4" stroke-dasharray="8" transform="matrix(0,1,-1,0,1753,-811)"/><line x1="1282" y1="1065" x2="1389" y2="1065" fill-opacity="0" stroke-opacity="1" stroke="#01D47B" fill="none" stroke-width="4" stroke-dasharray="8" transform="matrix(0,1,-1,0,2349,-215)"/><line x1="1009" y1="958" x2="1116" y2="958" fill-opacity="0" stroke-opacity="1" stroke="#01D47B" fill="none" stroke-width="4" stroke-dasharray="8" transform="matrix(0,1,-1,0,1969,-49)"/><line x1="1555" y1="958" x2="1662" y2="958" fill-opacity="0" stroke-opacity="1" stroke="#01D47B" fill="none" stroke-width="4" stroke-dasharray="8" transform="matrix(0,1,-1,0,2515,-595)"/><line x1="1555" y1="575" x2="1662" y2="575" fill-opacity="0" stroke-opacity="1" stroke="#01D47B" fill="none" stroke-width="4" stroke-dasharray="8" transform="matrix(0,1,-1,0,2132,-978)"/><line x1="1009" y1="575" x2="1116" y2="575" fill-opacity="0" stroke-opacity="1" stroke="#01D47B" fill="none" stroke-width="4" stroke-dasharray="8" transform="matrix(0,1,-1,0,1586,-432)"/><path d="M486.000021,578.5L492.230591,578.5L492.230591,574.5L486.000021,574.5Q485.03072,574.5,484.069742,574.5836339L484.416552,578.5685709Q485.204451,578.5,486.000021,578.5ZM500.198242,578.5L508.165771,578.5L508.165771,574.5L500.198242,574.5L500.198242,578.5ZM516.133301,578.5L524.10083,578.5L524.10083,574.5L516.133301,574.5L516.133301,578.5ZM532.068359,578.5L540.035889,578.5L540.035889,574.5L532.068359,574.5L532.068359,578.5ZM548.003418,578.5L555.970947,578.5L555.970947,574.5L548.003418,574.5L548.003418,578.5ZM563.938477,578.5L571.90601,578.5L571.90601,574.5L563.938477,574.5L563.938477,578.5ZM579.87354,578.5L587.84106,578.5L587.84106,574.5L579.87354,574.5L579.87354,578.5ZM595.80859,578.5L603.77612,578.5L603.77612,574.5L595.80859,574.5L595.80859,578.5ZM611.74365,578.5L619.71118,578.5L619.71118,574.5L611.74365,574.5L611.74365,578.5ZM627.67871,578.5L635.64624,578.5L635.64624,574.5L627.67871,574.5L627.67871,578.5ZM643.6137699999999,578.5L651.5813,578.5L651.5813,574.5L643.6137699999999,574.5L643.6137699999999,578.5ZM659.54883,578.5L667.51636,578.5L667.51636,574.5L659.54883,574.5L659.54883,578.5ZM675.48389,578.5L683.45142,578.5L683.45142,574.5L675.48389,574.5L675.48389,578.5ZM691.41895,578.5L699.38647,578.5L699.38647,574.5L691.41895,574.5L691.41895,578.5ZM707.354,578.5L715.3215299999999,578.5L715.3215299999999,574.5L707.354,574.5L707.354,578.5ZM723.2890600000001,578.5L731.25659,578.5L731.25659,574.5L723.2890600000001,574.5L723.2890600000001,578.5ZM739.2241200000001,578.5L747.19165,578.5L747.19165,574.5L739.2241200000001,574.5L739.2241200000001,578.5ZM755.15918,578.5L763.12671,578.5L763.12671,574.5L755.15918,574.5L755.15918,578.5ZM771.09424,578.5L779.06177,578.5L779.06177,574.5L771.09424,574.5L771.09424,578.5ZM787.0292999999999,578.5L794.99683,578.5L794.99683,574.5L787.0292999999999,574.5L787.0292999999999,578.5ZM802.9643599999999,578.5L810.93188,578.5L810.93188,574.5L802.9643599999999,574.5L802.9643599999999,578.5ZM818.89941,578.5L826.86694,578.5L826.86694,574.5L818.89941,574.5L818.89941,578.5ZM834.83447,578.5L842.802,578.5L842.802,574.5L834.83447,574.5L834.83447,578.5ZM850.76953,578.5L858.7370599999999,578.5L858.7370599999999,574.5L850.76953,574.5L850.76953,578.5ZM866.70459,578.5L874.67212,578.5L874.67212,574.5L866.70459,574.5L866.70459,578.5ZM882.6396500000001,578.5L890.60718,578.5L890.60718,574.5L882.6396500000001,574.5L882.6396500000001,578.5ZM898.57471,578.5L906.54224,578.5L906.54224,574.5L898.57471,574.5L898.57471,578.5ZM914.50977,578.5L922.47729,578.5L922.47729,574.5L914.50977,574.5L914.50977,578.5ZM930.4448199999999,578.5L938.4123500000001,578.5L938.4123500000001,574.5L930.4448199999999,574.5L930.4448199999999,578.5ZM946.37988,578.5L954.3474100000001,578.5L954.3474100000001,574.5L946.37988,574.5L946.37988,578.5ZM962.31494,578.5L970.28247,578.5L970.28247,574.5L962.31494,574.5L962.31494,578.5ZM978.25,578.5L986.21753,578.5L986.21753,574.5L978.25,574.5L978.25,578.5ZM994.18506,578.5L1002.15259,578.5L1002.15259,574.5L994.18506,574.5L994.18506,578.5ZM1010.12012,578.5L1018.08765,578.5L1018.08765,574.5L1010.12012,574.5L1010.12012,578.5ZM1026.0551799999998,578.5L1034.02271,578.5L1034.02271,574.5L1026.0551799999998,574.5L1026.0551799999998,578.5ZM1041.9902299999999,578.5L1049.95776,578.5L1049.95776,574.5L1041.9902299999999,574.5L1041.9902299999999,578.5ZM1057.9252900000001,578.5L1065.89276,578.5L1065.89276,574.5L1057.9252900000001,574.5L1057.9252900000001,578.5ZM1073.86035,578.5L1081.82788,578.5L1081.82788,574.5L1073.86035,574.5L1073.86035,578.5ZM1089.79541,578.5L1097.76288,578.5L1097.76288,574.5L1089.79541,574.5L1089.79541,578.5ZM1105.73047,578.5L1113.6979999999999,578.5L1113.6979999999999,574.5L1105.73047,574.5L1105.73047,578.5ZM1121.66553,578.5L1129.63312,578.5L1129.63312,574.5L1121.66553,574.5L1121.66553,578.5ZM1137.60059,578.5L1145.56812,578.5L1145.56812,574.5L1137.60059,574.5L1137.60059,578.5ZM1153.53564,578.5L1161.50323,578.5L1161.50323,574.5L1153.53564,574.5L1153.53564,578.5ZM1169.4707600000002,578.5L1177.43829,578.5L1177.43829,574.5L1169.4707600000002,574.5L1169.4707600000002,578.5ZM1185.40576,578.5L1193.3733499999998,578.5L1193.3733499999998,574.5L1185.40576,574.5L1185.40576,578.5ZM1201.34088,578.5L1209.30841,578.5L1209.30841,574.5L1201.34088,574.5L1201.34088,578.5ZM1217.2758800000001,578.5L1225.24347,578.5L1225.24347,574.5L1217.2758800000001,574.5L1217.2758800000001,578.5ZM1233.211,578.5L1241.1785300000001,578.5L1241.1785300000001,574.5L1233.211,574.5L1233.211,578.5ZM1249.1461199999999,578.5L1257.11359,578.5L1257.11359,574.5L1249.1461199999999,574.5L1249.1461199999999,578.5ZM1265.08112,578.5L1273.04865,578.5L1273.04865,574.5L1265.08112,574.5L1265.08112,578.5ZM1281.01624,578.5L1288.9837,578.5L1288.9837,574.5L1281.01624,574.5L1281.01624,578.5ZM1296.9512300000001,578.5L1304.91876,578.5L1304.91876,574.5L1296.9512300000001,574.5L1296.9512300000001,578.5ZM1312.88629,578.5L1320.85382,578.5L1320.85382,574.5L1312.88629,574.5L1312.88629,578.5ZM1328.8213500000002,578.5L1336.78888,578.5L1336.78888,574.5L1328.8213500000002,574.5L1328.8213500000002,578.5ZM1344.75647,578.5L1352.7240000000002,578.5L1352.7240000000002,574.5L1344.75647,574.5L1344.75647,578.5ZM1360.69153,578.5L1368.65906,578.5L1368.65906,574.5L1360.69153,574.5L1360.69153,578.5ZM1376.6265899999999,578.5L1384.59412,578.5L1384.59412,574.5L1376.6265899999999,574.5L1376.6265899999999,578.5ZM1392.56165,578.5L1400.52917,578.5L1400.52917,574.5L1392.56165,574.5L1392.56165,578.5ZM1408.4967000000001,578.5L1416.46423,578.5L1416.46423,574.5L1408.4967000000001,574.5L1408.4967000000001,578.5ZM1424.43176,578.5L1432.3992899999998,578.5L1432.3992899999998,574.5L1424.43176,574.5L1424.43176,578.5ZM1440.36682,578.5L1448.33435,578.5L1448.33435,574.5L1440.36682,574.5L1440.36682,578.5ZM1456.30188,578.5L1464.2694099999999,578.5L1464.2694099999999,574.5L1456.30188,574.5L1456.30188,578.5ZM1472.2368999999999,578.5L1480.2045,578.5L1480.2045,574.5L1472.2368999999999,574.5L1472.2368999999999,578.5ZM1488.172,578.5L1496.1395,578.5L1496.1395,574.5L1488.172,574.5L1488.172,578.5ZM1504.1071,578.5L1512.0746,578.5L1512.0746,574.5L1504.1071,574.5L1504.1071,578.5ZM1520.0421,578.5L1528.0096,578.5L1528.0096,574.5L1520.0421,574.5L1520.0421,578.5ZM1535.9772,578.5L1543.9447,578.5L1543.9447,574.5L1535.9772,574.5L1535.9772,578.5ZM1551.9122,578.5L1559.8798,578.5L1559.8798,574.5L1551.9122,574.5L1551.9122,578.5ZM1567.8473,578.5L1575.8148,578.5L1575.8148,574.5L1567.8473,574.5L1567.8473,578.5ZM1583.7823,578.5L1591.7499,578.5L1591.7499,574.5L1583.7823,574.5L1583.7823,578.5ZM1599.7174,578.5L1607.6849,578.5L1607.6849,574.5L1599.7174,574.5L1599.7174,578.5ZM1615.6525,578.5L1623.62,578.5L1623.62,574.5L1615.6525,574.5L1615.6525,578.5ZM1631.5875,578.5L1639.5551,578.5L1639.5551,574.5L1631.5875,574.5L1631.5875,578.5ZM1647.5226,578.5L1655.4901,578.5L1655.4901,574.5L1647.5226,574.5L1647.5226,578.5ZM1663.4576,578.5L1671.4252,578.5L1671.4252,574.5L1663.4576,574.5L1663.4576,578.5ZM1679.3927,578.5L1687.3602,578.5L1687.3602,574.5L1679.3927,574.5L1679.3927,578.5ZM1695.3278,578.5L1703.2953,578.5L1703.2953,574.5L1695.3278,574.5L1695.3278,578.5ZM1711.2628,578.5L1719.2303,578.5L1719.2303,574.5L1711.2628,574.5L1711.2628,578.5ZM1727.1979,578.5L1735.1654,578.5L1735.1654,574.5L1727.1979,574.5L1727.1979,578.5ZM1743.1329,578.5L1751.1005,578.5L1751.1005,574.5L1743.1329,574.5L1743.1329,578.5ZM1759.068,578.5L1767.0355,578.5L1767.0355,574.5L1759.068,574.5L1759.068,578.5ZM1775.0032,578.5L1782.9707,578.5L1782.9707,574.5L1775.0032,574.5L1775.0032,578.5ZM1790.9382,578.5L1798.9058,578.5L1798.9058,574.5L1790.9382,574.5L1790.9382,578.5ZM1806.8733,578.5L1814.8408,578.5L1814.8408,574.5L1806.8733,574.5L1806.8733,578.5ZM1822.8083,578.5L1830.7759,578.5L1830.7759,574.5L1822.8083,574.5L1822.8083,578.5ZM1838.7434,578.5L1846.7109,578.5L1846.7109,574.5L1838.7434,574.5L1838.7434,578.5ZM1854.6785,578.5L1862.646,578.5L1862.646,574.5L1854.6785,574.5L1854.6785,578.5ZM1870.6135,578.5L1878.5811,578.5L1878.5811,574.5L1870.6135,574.5L1870.6135,578.5ZM1886.5486,578.5L1894.5161,578.5L1894.5161,574.5L1886.5486,574.5L1886.5486,578.5ZM1902.4836,578.5L1910.4512,578.5L1910.4512,574.5L1902.4836,574.5L1902.4836,578.5ZM1918.4187,578.5L1926.3862,578.5L1926.3862,574.5L1918.4187,574.5L1918.4187,578.5ZM1934.3538,578.5L1942.3213,578.5L1942.3213,574.5L1934.3538,574.5L1934.3538,578.5ZM1950.2888,578.5L1958.2563,578.5L1958.2563,574.5L1950.2888,574.5L1950.2888,578.5ZM1966.2239,578.5L1974.1914,578.5L1974.1914,574.5L1966.2239,574.5L1966.2239,578.5ZM1982.1589,578.5L1990.1265,578.5L1990.1265,574.5L1982.1589,574.5L1982.1589,578.5ZM1998.094,578.5L2006.0615,578.5L2006.0615,574.5L1998.094,574.5L1998.094,578.5ZM2014.0291,578.5L2021.9966,578.5L2021.9966,574.5L2014.0291,574.5L2014.0291,578.5ZM2029.9641,578.5L2037.9316,578.5L2037.9316,574.5L2029.9641,574.5L2029.9641,578.5ZM2045.8992,578.5L2053.8667,578.5L2053.8667,574.5L2045.8992,574.5L2045.8992,578.5ZM2061.8342000000002,578.5L2069.8018,578.5L2069.8018,574.5L2061.8342000000002,574.5L2061.8342000000002,578.5ZM2082.5,578.5Q2083.9753,578.5,2085.4184999999998,578.7350843L2086.0615,574.7871249Q2084.299,574.5,2082.5,574.5L2077.7693,574.5L2077.7693,578.5L2082.5,578.5ZM472.0489306,585.1250353Q474.3595819,582.2948647,477.577125,580.5877781L475.7024164,577.05429983Q471.7716885,579.1397715,468.9504514,582.5953264L472.0489306,585.1250353ZM2092.0994,581.270309Q2095.1798,583.2164326,2097.2679,586.2056847L2100.547,583.9150252Q2097.9973,580.264997,2094.2358,577.8886439L2092.0994,581.270309ZM468,596.500002Q468,593.912786,468.7160115,591.455107L464.8756708,590.336275Q464,593.341978,464,596.500002L464,598.808474L468,598.808474L468,596.500002ZM2100.5,596.500002L2100.5,600.308456L2104.5,600.308456L2104.5,596.500002Q2104.5,594.191214,2104.0286,591.950387L2100.1143,592.773897Q2100.5,594.607407,2100.5,596.500002ZM468,614.74353L468,606.776001L464,606.776001L464,614.74353L468,614.74353ZM2100.5,608.275986L2100.5,616.243519L2104.5,616.243519L2104.5,608.275986L2100.5,608.275986ZM468,630.678589L468,622.71106L464,622.71106L464,630.678589L468,630.678589ZM2100.5,624.211052L2100.5,632.178585L2104.5,632.178585L2104.5,624.211052L2100.5,624.211052ZM468,646.613647L468,638.646118L464,638.646118L464,646.613647L468,646.613647ZM2100.5,640.146111L2100.5,648.11364L2104.5,648.11364L2104.5,640.146111L2100.5,640.146111ZM468,662.548706L468,654.581177L464,654.581177L464,662.548706L468,662.548706ZM2100.5,656.081177L2100.5,664.048706L2104.5,664.048706L2104.5,656.081177L2100.5,656.081177ZM468,674.5L468,670.516235L464,670.516235L464,674.5L468,674.5ZM2100.5,672.016235L2100.5,676L2104.5,676L2104.5,672.016235L2100.5,672.016235Z" fill-rule="evenodd" fill="#01D47B" fill-opacity="1"/><g transform="matrix(1,0,0,-1,0,2133)"><path d="M486.000021,1068.5L492.230591,1068.5L492.230591,1064.5L486.000021,1064.5Q485.03072,1064.5,484.069742,1064.5836339L484.416552,1068.5685709Q485.204451,1068.5,486.000021,1068.5ZM500.198242,1068.5L508.165771,1068.5L508.165771,1064.5L500.198242,1064.5L500.198242,1068.5ZM516.133301,1068.5L524.10083,1068.5L524.10083,1064.5L516.133301,1064.5L516.133301,1068.5ZM532.068359,1068.5L540.035889,1068.5L540.035889,1064.5L532.068359,1064.5L532.068359,1068.5ZM548.003418,1068.5L555.970947,1068.5L555.970947,1064.5L548.003418,1064.5L548.003418,1068.5ZM563.938477,1068.5L571.90601,1068.5L571.90601,1064.5L563.938477,1064.5L563.938477,1068.5ZM579.87354,1068.5L587.84106,1068.5L587.84106,1064.5L579.87354,1064.5L579.87354,1068.5ZM595.80859,1068.5L603.77612,1068.5L603.77612,1064.5L595.80859,1064.5L595.80859,1068.5ZM611.74365,1068.5L619.71118,1068.5L619.71118,1064.5L611.74365,1064.5L611.74365,1068.5ZM627.67871,1068.5L635.64624,1068.5L635.64624,1064.5L627.67871,1064.5L627.67871,1068.5ZM643.6137699999999,1068.5L651.5813,1068.5L651.5813,1064.5L643.6137699999999,1064.5L643.6137699999999,1068.5ZM659.54883,1068.5L667.51636,1068.5L667.51636,1064.5L659.54883,1064.5L659.54883,1068.5ZM675.48389,1068.5L683.45142,1068.5L683.45142,1064.5L675.48389,1064.5L675.48389,1068.5ZM691.41895,1068.5L699.38647,1068.5L699.38647,1064.5L691.41895,1064.5L691.41895,1068.5ZM707.354,1068.5L715.3215299999999,1068.5L715.3215299999999,1064.5L707.354,1064.5L707.354,1068.5ZM723.2890600000001,1068.5L731.25659,1068.5L731.25659,1064.5L723.2890600000001,1064.5L723.2890600000001,1068.5ZM739.2241200000001,1068.5L747.19165,1068.5L747.19165,1064.5L739.2241200000001,1064.5L739.2241200000001,1068.5ZM755.15918,1068.5L763.12671,1068.5L763.12671,1064.5L755.15918,1064.5L755.15918,1068.5ZM771.09424,1068.5L779.06177,1068.5L779.06177,1064.5L771.09424,1064.5L771.09424,1068.5ZM787.0292999999999,1068.5L794.99683,1068.5L794.99683,1064.5L787.0292999999999,1064.5L787.0292999999999,1068.5ZM802.9643599999999,1068.5L810.93188,1068.5L810.93188,1064.5L802.9643599999999,1064.5L802.9643599999999,1068.5ZM818.89941,1068.5L826.86694,1068.5L826.86694,1064.5L818.89941,1064.5L818.89941,1068.5ZM834.83447,1068.5L842.802,1068.5L842.802,1064.5L834.83447,1064.5L834.83447,1068.5ZM850.76953,1068.5L858.7370599999999,1068.5L858.7370599999999,1064.5L850.76953,1064.5L850.76953,1068.5ZM866.70459,1068.5L874.67212,1068.5L874.67212,1064.5L866.70459,1064.5L866.70459,1068.5ZM882.6396500000001,1068.5L890.60718,1068.5L890.60718,1064.5L882.6396500000001,1064.5L882.6396500000001,1068.5ZM898.57471,1068.5L906.54224,1068.5L906.54224,1064.5L898.57471,1064.5L898.57471,1068.5ZM914.50977,1068.5L922.47729,1068.5L922.47729,1064.5L914.50977,1064.5L914.50977,1068.5ZM930.4448199999999,1068.5L938.4123500000001,1068.5L938.4123500000001,1064.5L930.4448199999999,1064.5L930.4448199999999,1068.5ZM946.37988,1068.5L954.3474100000001,1068.5L954.3474100000001,1064.5L946.37988,1064.5L946.37988,1068.5ZM962.31494,1068.5L970.28247,1068.5L970.28247,1064.5L962.31494,1064.5L962.31494,1068.5ZM978.25,1068.5L986.21753,1068.5L986.21753,1064.5L978.25,1064.5L978.25,1068.5ZM994.18506,1068.5L1002.15259,1068.5L1002.15259,1064.5L994.18506,1064.5L994.18506,1068.5ZM1010.12012,1068.5L1018.08765,1068.5L1018.08765,1064.5L1010.12012,1064.5L1010.12012,1068.5ZM1026.0551799999998,1068.5L1034.02271,1068.5L1034.02271,1064.5L1026.0551799999998,1064.5L1026.0551799999998,1068.5ZM1041.9902299999999,1068.5L1049.95776,1068.5L1049.95776,1064.5L1041.9902299999999,1064.5L1041.9902299999999,1068.5ZM1057.9252900000001,1068.5L1065.89276,1068.5L1065.89276,1064.5L1057.9252900000001,1064.5L1057.9252900000001,1068.5ZM1073.86035,1068.5L1081.82788,1068.5L1081.82788,1064.5L1073.86035,1064.5L1073.86035,1068.5ZM1089.79541,1068.5L1097.76288,1068.5L1097.76288,1064.5L1089.79541,1064.5L1089.79541,1068.5ZM1105.73047,1068.5L1113.6979999999999,1068.5L1113.6979999999999,1064.5L1105.73047,1064.5L1105.73047,1068.5ZM1121.66553,1068.5L1129.63312,1068.5L1129.63312,1064.5L1121.66553,1064.5L1121.66553,1068.5ZM1137.60059,1068.5L1145.56812,1068.5L1145.56812,1064.5L1137.60059,1064.5L1137.60059,1068.5ZM1153.53564,1068.5L1161.50323,1068.5L1161.50323,1064.5L1153.53564,1064.5L1153.53564,1068.5ZM1169.4707600000002,1068.5L1177.43829,1068.5L1177.43829,1064.5L1169.4707600000002,1064.5L1169.4707600000002,1068.5ZM1185.40576,1068.5L1193.3733499999998,1068.5L1193.3733499999998,1064.5L1185.40576,1064.5L1185.40576,1068.5ZM1201.34088,1068.5L1209.30841,1068.5L1209.30841,1064.5L1201.34088,1064.5L1201.34088,1068.5ZM1217.2758800000001,1068.5L1225.24347,1068.5L1225.24347,1064.5L1217.2758800000001,1064.5L1217.2758800000001,1068.5ZM1233.211,1068.5L1241.1785300000001,1068.5L1241.1785300000001,1064.5L1233.211,1064.5L1233.211,1068.5ZM1249.1461199999999,1068.5L1257.11359,1068.5L1257.11359,1064.5L1249.1461199999999,1064.5L1249.1461199999999,1068.5ZM1265.08112,1068.5L1273.04865,1068.5L1273.04865,1064.5L1265.08112,1064.5L1265.08112,1068.5ZM1281.01624,1068.5L1288.9837,1068.5L1288.9837,1064.5L1281.01624,1064.5L1281.01624,1068.5ZM1296.9512300000001,1068.5L1304.91876,1068.5L1304.91876,1064.5L1296.9512300000001,1064.5L1296.9512300000001,1068.5ZM1312.88629,1068.5L1320.85382,1068.5L1320.85382,1064.5L1312.88629,1064.5L1312.88629,1068.5ZM1328.8213500000002,1068.5L1336.78888,1068.5L1336.78888,1064.5L1328.8213500000002,1064.5L1328.8213500000002,1068.5ZM1344.75647,1068.5L1352.7240000000002,1068.5L1352.7240000000002,1064.5L1344.75647,1064.5L1344.75647,1068.5ZM1360.69153,1068.5L1368.65906,1068.5L1368.65906,1064.5L1360.69153,1064.5L1360.69153,1068.5ZM1376.6265899999999,1068.5L1384.59412,1068.5L1384.59412,1064.5L1376.6265899999999,1064.5L1376.6265899999999,1068.5ZM1392.56165,1068.5L1400.52917,1068.5L1400.52917,1064.5L1392.56165,1064.5L1392.56165,1068.5ZM1408.4967000000001,1068.5L1416.46423,1068.5L1416.46423,1064.5L1408.4967000000001,1064.5L1408.4967000000001,1068.5ZM1424.43176,1068.5L1432.3992899999998,1068.5L1432.3992899999998,1064.5L1424.43176,1064.5L1424.43176,1068.5ZM1440.36682,1068.5L1448.33435,1068.5L1448.33435,1064.5L1440.36682,1064.5L1440.36682,1068.5ZM1456.30188,1068.5L1464.2694099999999,1068.5L1464.2694099999999,1064.5L1456.30188,1064.5L1456.30188,1068.5ZM1472.2368999999999,1068.5L1480.2045,1068.5L1480.2045,1064.5L1472.2368999999999,1064.5L1472.2368999999999,1068.5ZM1488.172,1068.5L1496.1395,1068.5L1496.1395,1064.5L1488.172,1064.5L1488.172,1068.5ZM1504.1071,1068.5L1512.0746,1068.5L1512.0746,1064.5L1504.1071,1064.5L1504.1071,1068.5ZM1520.0421,1068.5L1528.0096,1068.5L1528.0096,1064.5L1520.0421,1064.5L1520.0421,1068.5ZM1535.9772,1068.5L1543.9447,1068.5L1543.9447,1064.5L1535.9772,1064.5L1535.9772,1068.5ZM1551.9122,1068.5L1559.8798,1068.5L1559.8798,1064.5L1551.9122,1064.5L1551.9122,1068.5ZM1567.8473,1068.5L1575.8148,1068.5L1575.8148,1064.5L1567.8473,1064.5L1567.8473,1068.5ZM1583.7823,1068.5L1591.7499,1068.5L1591.7499,1064.5L1583.7823,1064.5L1583.7823,1068.5ZM1599.7174,1068.5L1607.6849,1068.5L1607.6849,1064.5L1599.7174,1064.5L1599.7174,1068.5ZM1615.6525,1068.5L1623.62,1068.5L1623.62,1064.5L1615.6525,1064.5L1615.6525,1068.5ZM1631.5875,1068.5L1639.5551,1068.5L1639.5551,1064.5L1631.5875,1064.5L1631.5875,1068.5ZM1647.5226,1068.5L1655.4901,1068.5L1655.4901,1064.5L1647.5226,1064.5L1647.5226,1068.5ZM1663.4576,1068.5L1671.4252,1068.5L1671.4252,1064.5L1663.4576,1064.5L1663.4576,1068.5ZM1679.3927,1068.5L1687.3602,1068.5L1687.3602,1064.5L1679.3927,1064.5L1679.3927,1068.5ZM1695.3278,1068.5L1703.2953,1068.5L1703.2953,1064.5L1695.3278,1064.5L1695.3278,1068.5ZM1711.2628,1068.5L1719.2303,1068.5L1719.2303,1064.5L1711.2628,1064.5L1711.2628,1068.5ZM1727.1979,1068.5L1735.1654,1068.5L1735.1654,1064.5L1727.1979,1064.5L1727.1979,1068.5ZM1743.1329,1068.5L1751.1005,1068.5L1751.1005,1064.5L1743.1329,1064.5L1743.1329,1068.5ZM1759.068,1068.5L1767.0355,1068.5L1767.0355,1064.5L1759.068,1064.5L1759.068,1068.5ZM1775.0032,1068.5L1782.9707,1068.5L1782.9707,1064.5L1775.0032,1064.5L1775.0032,1068.5ZM1790.9382,1068.5L1798.9058,1068.5L1798.9058,1064.5L1790.9382,1064.5L1790.9382,1068.5ZM1806.8733,1068.5L1814.8408,1068.5L1814.8408,1064.5L1806.8733,1064.5L1806.8733,1068.5ZM1822.8083,1068.5L1830.7759,1068.5L1830.7759,1064.5L1822.8083,1064.5L1822.8083,1068.5ZM1838.7434,1068.5L1846.7109,1068.5L1846.7109,1064.5L1838.7434,1064.5L1838.7434,1068.5ZM1854.6785,1068.5L1862.646,1068.5L1862.646,1064.5L1854.6785,1064.5L1854.6785,1068.5ZM1870.6135,1068.5L1878.5811,1068.5L1878.5811,1064.5L1870.6135,1064.5L1870.6135,1068.5ZM1886.5486,1068.5L1894.5161,1068.5L1894.5161,1064.5L1886.5486,1064.5L1886.5486,1068.5ZM1902.4836,1068.5L1910.4512,1068.5L1910.4512,1064.5L1902.4836,1064.5L1902.4836,1068.5ZM1918.4187,1068.5L1926.3862,1068.5L1926.3862,1064.5L1918.4187,1064.5L1918.4187,1068.5ZM1934.3538,1068.5L1942.3213,1068.5L1942.3213,1064.5L1934.3538,1064.5L1934.3538,1068.5ZM1950.2888,1068.5L1958.2563,1068.5L1958.2563,1064.5L1950.2888,1064.5L1950.2888,1068.5ZM1966.2239,1068.5L1974.1914,1068.5L1974.1914,1064.5L1966.2239,1064.5L1966.2239,1068.5ZM1982.1589,1068.5L1990.1265,1068.5L1990.1265,1064.5L1982.1589,1064.5L1982.1589,1068.5ZM1998.094,1068.5L2006.0615,1068.5L2006.0615,1064.5L1998.094,1064.5L1998.094,1068.5ZM2014.0291,1068.5L2021.9966,1068.5L2021.9966,1064.5L2014.0291,1064.5L2014.0291,1068.5ZM2029.9641,1068.5L2037.9316,1068.5L2037.9316,1064.5L2029.9641,1064.5L2029.9641,1068.5ZM2045.8992,1068.5L2053.8667,1068.5L2053.8667,1064.5L2045.8992,1064.5L2045.8992,1068.5ZM2061.8342000000002,1068.5L2069.8018,1068.5L2069.8018,1064.5L2061.8342000000002,1064.5L2061.8342000000002,1068.5ZM2082.5,1068.5Q2083.9753,1068.5,2085.4184999999998,1068.7350843L2086.0615,1064.7871249Q2084.299,1064.5,2082.5,1064.5L2077.7693,1064.5L2077.7693,1068.5L2082.5,1068.5ZM472.0489306,1075.1250353Q474.3595819,1072.2948647,477.577125,1070.5877781L475.7024164,1067.05429983Q471.7716885,1069.1397715,468.9504514,1072.5953264L472.0489306,1075.1250353ZM2092.0994,1071.270309Q2095.1798,1073.2164326,2097.2679,1076.2056847L2100.547,1073.9150252Q2097.9973,1070.264997,2094.2358,1067.8886439L2092.0994,1071.270309ZM468,1086.500002Q468,1083.912786,468.7160115,1081.455107L464.8756708,1080.3362750000001Q464,1083.341978,464,1086.500002L464,1088.808474L468,1088.808474L468,1086.500002ZM2100.5,1086.500002L2100.5,1090.308456L2104.5,1090.308456L2104.5,1086.500002Q2104.5,1084.191214,2104.0286,1081.950387L2100.1143,1082.773897Q2100.5,1084.607407,2100.5,1086.500002ZM468,1104.74353L468,1096.776001L464,1096.776001L464,1104.74353L468,1104.74353ZM2100.5,1098.275986L2100.5,1106.243519L2104.5,1106.243519L2104.5,1098.275986L2100.5,1098.275986ZM468,1120.678589L468,1112.71106L464,1112.71106L464,1120.678589L468,1120.678589ZM2100.5,1114.211052L2100.5,1122.178585L2104.5,1122.178585L2104.5,1114.211052L2100.5,1114.211052ZM468,1136.613647L468,1128.6461180000001L464,1128.6461180000001L464,1136.613647L468,1136.613647ZM2100.5,1130.146111L2100.5,1138.11364L2104.5,1138.11364L2104.5,1130.146111L2100.5,1130.146111ZM468,1152.548706L468,1144.581177L464,1144.581177L464,1152.548706L468,1152.548706ZM2100.5,1146.081177L2100.5,1154.048706L2104.5,1154.048706L2104.5,1146.081177L2100.5,1146.081177ZM468,1164.5L468,1160.516235L464,1160.516235L464,1164.5L468,1164.5ZM2100.5,1162.016235L2100.5,1166L2104.5,1166L2104.5,1162.016235L2100.5,1162.016235Z" fill-rule="evenodd" fill="#01D47B" fill-opacity="1"/></g><rect x="681" y="339" width="1207" height="144" rx="35" fill="url(#master_svg1_3_894)" fill-opacity="1"/><rect x="680.5" y="338.5" width="1208" height="145" rx="35.5" stroke="url(#master_svg2_3_0111)" fill-opacity="0" fill="none" stroke-width="1"/><rect x="882" y="1134" width="805" height="187" rx="35" fill="#2B2C2D" fill-opacity="1"/><rect x="881.5" y="1133.5" width="806" height="188" rx="35.5" stroke="url(#master_svg3_3_0111)" fill-opacity="0" fill="none" stroke-width="1"/><rect x="224" y="662" width="483" height="318" rx="35" fill="url(#master_svg4_3_907)" fill-opacity="1"/><rect x="223.5" y="661.5" width="484" height="319" rx="35.5" stroke="url(#master_svg5_3_0111)" fill-opacity="0" fill="none" stroke-width="1"/><rect x="770" y="662" width="483" height="318" rx="35" fill="url(#master_svg6_3_907)" fill-opacity="1"/><rect x="769.5" y="661.5" width="484" height="319" rx="35.5" stroke="url(#master_svg7_3_0111)" fill-opacity="0" fill="none" stroke-width="1"/><rect x="1317" y="662" width="483" height="318" rx="35" fill="url(#master_svg8_3_907)" fill-opacity="1"/><rect x="1316.5" y="661.5" width="484" height="319" rx="35.5" stroke="url(#master_svg9_3_0111)" fill-opacity="0" fill="none" stroke-width="1"/><rect x="1863" y="662" width="483" height="318" rx="35" fill="url(#master_svga_3_907)" fill-opacity="1"/><rect x="1862.5" y="661.5" width="484" height="319" rx="35.5" stroke="url(#master_svgb_3_0111)" fill-opacity="0" fill="none" stroke-width="1"/><line x1="287" y1="828.5" x2="643" y2="828.5" fill-opacity="0" stroke-opacity="1" stroke="#D8D8D8" fill="none" stroke-width="1"/><rect x="413" y="823" width="104" height="11" rx="5.5" fill="#00C488" fill-opacity="1"/><line x1="833" y1="828.5" x2="1189" y2="828.5" fill-opacity="0" stroke-opacity="1" stroke="#D8D8D8" fill="none" stroke-width="1"/><rect x="959" y="823" width="104" height="11" rx="5.5" fill="#1BAA8D" fill-opacity="1"/><line x1="1380" y1="828.5" x2="1736" y2="828.5" fill-opacity="0" stroke-opacity="1" stroke="#D8D8D8" fill="none" stroke-width="1"/><rect x="1506" y="823" width="104" height="11" rx="5.5" fill="#F75B50" fill-opacity="1"/><line x1="1926" y1="828.5" x2="2282" y2="828.5" fill-opacity="0" stroke-opacity="1" stroke="#D8D8D8" fill="none" stroke-width="1"/><rect x="2052" y="823" width="104" height="11" rx="5.5" fill="#FCCB02" fill-opacity="1"/></g></svg>