<svg xmlns="http://www.w3.org/2000/svg" xmlns:xlink="http://www.w3.org/1999/xlink" fill="none" version="1.1" width="1814" height="1020" viewBox="0 0 1814 1020"><defs><clipPath id="master_svg0_4_078"><rect x="-3" y="-3" width="1820" height="1026" rx="0"/></clipPath></defs><g clip-path="url(#master_svg0_4_078)"><line x1="905" y1="315.5" x2="1414.9999694824219" y2="315.5" fill-opacity="0" stroke-opacity="1" stroke="#29F318" fill="none" stroke-width="3" stroke-dasharray="6" transform="matrix(0,1,-1,0,1222,-588)"/><path d="M496.999982,726.5L501.610474,726.5L501.610474,723.5L496.999982,723.5Q496.205377,723.5,495.419088,723.5797455L495.721796,726.5644345Q496.357119,726.5,496.999982,726.5ZM507.608765,726.5L513.607178,726.5L513.607178,723.5L507.608765,723.5L507.608765,726.5ZM519.605469,726.5L525.603882,726.5L525.603882,723.5L519.605469,723.5L519.605469,726.5ZM531.602295,726.5L537.600586,726.5L537.600586,723.5L531.602295,723.5L531.602295,726.5ZM543.598999,726.5L549.59729,726.5L549.59729,723.5L543.598999,723.5L543.598999,726.5ZM555.595703,726.5L561.594116,726.5L561.594116,723.5L555.595703,723.5L555.595703,726.5ZM567.592407,726.5L573.59082,726.5L573.59082,723.5L567.592407,723.5L567.592407,726.5ZM579.589111,726.5L585.58752,726.5L585.58752,723.5L579.589111,723.5L579.589111,726.5ZM591.5859399999999,726.5L597.58423,726.5L597.58423,723.5L591.5859399999999,723.5L591.5859399999999,726.5ZM603.58264,726.5L609.58093,726.5L609.58093,723.5L603.58264,723.5L603.58264,726.5ZM615.57935,726.5L621.57776,726.5L621.57776,723.5L615.57935,723.5L615.57935,726.5ZM627.57605,726.5L633.57446,726.5L633.57446,723.5L627.57605,723.5L627.57605,726.5ZM639.57275,726.5L645.5711699999999,726.5L645.5711699999999,723.5L639.57275,723.5L639.57275,726.5ZM651.56958,726.5L657.56787,726.5L657.56787,723.5L651.56958,723.5L651.56958,726.5ZM663.56628,726.5L669.56458,726.5L669.56458,723.5L663.56628,723.5L663.56628,726.5ZM675.56299,726.5L681.5614,726.5L681.5614,723.5L675.56299,723.5L675.56299,726.5ZM687.55969,726.5L693.5581099999999,726.5L693.5581099999999,723.5L687.55969,723.5L687.55969,726.5ZM699.5563999999999,726.5L705.55481,726.5L705.55481,723.5L699.5563999999999,723.5L699.5563999999999,726.5ZM711.55322,726.5L717.55151,726.5L717.55151,723.5L711.55322,723.5L711.55322,726.5ZM723.54993,726.5L729.54822,726.5L729.54822,723.5L723.54993,723.5L723.54993,726.5ZM735.54663,726.5L741.54504,726.5L741.54504,723.5L735.54663,723.5L735.54663,726.5ZM747.54333,726.5L753.54175,726.5L753.54175,723.5L747.54333,723.5L747.54333,726.5ZM759.54004,726.5L765.53845,726.5L765.53845,723.5L759.54004,723.5L759.54004,726.5ZM771.53687,726.5L777.53516,726.5L777.53516,723.5L771.53687,723.5L771.53687,726.5ZM783.53357,726.5L789.53186,726.5L789.53186,723.5L783.53357,723.5L783.53357,726.5ZM795.53027,726.5L801.52869,726.5L801.52869,723.5L795.53027,723.5L795.53027,726.5ZM807.52701,726.5L813.5253299999999,726.5L813.5253299999999,723.5L807.52701,723.5L807.52701,726.5ZM819.52374,726.5L825.52206,726.5L825.52206,723.5L819.52374,723.5L819.52374,726.5ZM831.52045,726.5L837.51886,726.5L837.51886,723.5L831.52045,723.5L831.52045,726.5ZM843.51718,726.5L849.51553,726.5L849.51553,723.5L843.51718,723.5L843.51718,726.5ZM855.51385,726.5L861.5123,726.5L861.5123,723.5L855.51385,723.5L855.51385,726.5ZM867.5106499999999,726.5L873.50897,726.5L873.50897,723.5L867.5106499999999,723.5L867.5106499999999,726.5ZM879.50739,726.5L885.50577,726.5L885.50577,723.5L879.50739,723.5L879.50739,726.5ZM891.50409,726.5L897.5025,726.5L897.5025,723.5L891.50409,723.5L891.50409,726.5ZM903.50082,726.5L909.49918,726.5L909.49918,723.5L903.50082,723.5L903.50082,726.5ZM915.49759,726.5L921.49594,726.5L921.49594,723.5L915.49759,723.5L915.49759,726.5ZM927.49429,726.5L933.49265,726.5L933.49265,723.5L927.49429,723.5L927.49429,726.5ZM939.49103,726.5L945.48938,726.5L945.48938,723.5L939.49103,723.5L939.49103,726.5ZM951.48773,726.5L957.48611,726.5L957.48611,723.5L951.48773,723.5L951.48773,726.5ZM963.48447,726.5L969.48285,726.5L969.48285,723.5L963.48447,723.5L963.48447,726.5ZM975.4812,726.5L981.4795799999999,726.5L981.4795799999999,723.5L975.4812,723.5L975.4812,726.5ZM987.47794,726.5L993.4762900000001,726.5L993.4762900000001,723.5L987.47794,723.5L987.47794,726.5ZM999.47467,726.5L1005.47302,726.5L1005.47302,723.5L999.47467,723.5L999.47467,726.5ZM1011.47144,726.5L1017.46973,726.5L1017.46973,723.5L1011.47144,723.5L1011.47144,726.5ZM1023.46814,726.5L1029.46649,726.5L1029.46649,723.5L1023.46814,723.5L1023.46814,726.5ZM1035.46484,726.5L1041.46326,726.5L1041.46326,723.5L1035.46484,723.5L1035.46484,726.5ZM1047.46155,726.5L1053.4599600000001,726.5L1053.4599600000001,723.5L1047.46155,723.5L1047.46155,726.5ZM1059.45831,726.5L1065.45667,726.5L1065.45667,723.5L1059.45831,723.5L1059.45831,726.5ZM1071.45508,726.5L1077.45337,726.5L1077.45337,723.5L1071.45508,723.5L1071.45508,726.5ZM1083.4517799999999,726.5L1089.45013,726.5L1089.45013,723.5L1083.4517799999999,723.5L1083.4517799999999,726.5ZM1095.44849,726.5L1101.4469,726.5L1101.4469,723.5L1095.44849,723.5L1095.44849,726.5ZM1107.44519,726.5L1113.4436,726.5L1113.4436,723.5L1107.44519,723.5L1107.44519,726.5ZM1119.44196,726.5L1125.44031,726.5L1125.44031,723.5L1119.44196,723.5L1119.44196,726.5ZM1131.43872,726.5L1137.43701,726.5L1137.43701,723.5L1131.43872,723.5L1131.43872,726.5ZM1143.43542,726.5L1149.4337799999998,726.5L1149.4337799999998,723.5L1143.43542,723.5L1143.43542,726.5ZM1155.4321300000001,726.5L1161.4305399999998,726.5L1161.4305399999998,723.5L1155.4321300000001,723.5L1155.4321300000001,726.5ZM1167.4288299999998,726.5L1173.42725,726.5L1173.42725,723.5L1167.4288299999998,723.5L1167.4288299999998,726.5ZM1179.4256,726.5L1185.4239499999999,726.5L1185.4239499999999,723.5L1179.4256,723.5L1179.4256,726.5ZM1191.4223,726.5L1197.42065,726.5L1197.42065,723.5L1191.4223,723.5L1191.4223,726.5ZM1203.41907,726.5L1209.41742,726.5L1209.41742,723.5L1203.41907,723.5L1203.41907,726.5ZM1215.41577,726.5L1221.41418,726.5L1221.41418,723.5L1215.41577,723.5L1215.41577,726.5ZM1227.41248,726.5L1233.41089,726.5L1233.41089,723.5L1227.41248,723.5L1227.41248,726.5ZM1239.40924,726.5L1245.40759,726.5L1245.40759,723.5L1239.40924,723.5L1239.40924,726.5ZM1251.4060100000002,726.5L1257.40436,726.5L1257.40436,723.5L1251.4060100000002,723.5L1251.4060100000002,726.5ZM1263.4027099999998,726.5L1269.4010600000001,726.5L1269.4010600000001,723.5L1263.4027099999998,723.5L1263.4027099999998,726.5ZM1275.39941,726.5L1281.3978299999999,726.5L1281.3978299999999,723.5L1275.39941,723.5L1275.39941,726.5ZM1287.3961199999999,726.5L1293.39453,726.5L1293.39453,723.5L1287.3961199999999,723.5L1287.3961199999999,726.5ZM1299.3928799999999,726.5L1305.39124,726.5L1305.39124,723.5L1299.3928799999999,723.5L1299.3928799999999,726.5ZM1316,726.5Q1316.6428799999999,726.5,1317.2782,726.5644345L1317.58093,723.5797458Q1316.7946200000001,723.5,1316,723.5L1311.38965,723.5L1311.38965,726.5L1316,726.5ZM486.7483597,731.845685Q488.3133459,729.6078358,490.6626577,728.2229972L489.1392355,725.63858521Q486.2284145,727.3544142,484.2898856,730.1264105L486.7483597,731.845685ZM1322.33734,728.2230101Q1324.68652,729.6077499,1326.2516500000002,731.8456917L1328.7101400000001,730.1263676Q1326.7714799999999,727.35432,1323.86078,725.63858521L1322.33734,728.2230101ZM1328.5,738.999999L1328.5,742.528625L1331.5,742.528625L1331.5,738.999999Q1331.5,737.591837,1331.25049,736.216757L1328.29871,736.752369Q1328.5,737.861717,1328.5,738.999999ZM484.5,739.000002Q484.5,737.861729,484.7012665,736.75235L481.7494514,736.216824Q481.5,737.591798,481.5,739.000002L481.5,742.528688L484.5,742.528688L484.5,739.000002ZM1328.5,748.526985L1328.5,754.525352L1331.5,754.525352L1331.5,748.526985L1328.5,748.526985ZM484.5,754.525393L484.5,748.5270399999999L481.5,748.5270399999999L481.5,754.525393L484.5,754.525393ZM1328.5,760.523712L1328.5,766.522079L1331.5,766.522079L1331.5,760.523712L1328.5,760.523712ZM484.5,766.522095L484.5,760.523743L481.5,760.523743L481.5,766.522095L484.5,766.522095ZM1328.5,772.520447L1328.5,778.518806L1331.5,778.518806L1331.5,772.520447L1328.5,772.520447ZM484.5,778.51886L484.5,772.520508L481.5,772.520508L481.5,778.51886L484.5,778.51886ZM1328.5,784.517174L1328.5,790.515541L1331.5,790.515541L1331.5,784.517174L1328.5,784.517174ZM484.5,790.515564L484.5,784.517212L481.5,784.517212L481.5,790.515564L484.5,790.515564ZM1328.5,796.513901L1328.5,802.512268L1331.5,802.512268L1331.5,796.513901L1328.5,796.513901ZM484.5,802.512329L484.5,796.513916L481.5,796.513916L481.5,802.512329L484.5,802.512329ZM484.5,814.509033L484.5,808.51062L481.5,808.51062L481.5,814.509033L484.5,814.509033ZM1328.5,808.510635L1328.5,814.508995L1331.5,814.508995L1331.5,808.510635L1328.5,808.510635ZM1328.5,820.5073620000001L1328.5,826.50572L1331.5,826.50572L1331.5,820.5073620000001L1328.5,820.5073620000001ZM484.5,826.5057400000001L484.5,820.507446L481.5,820.507446L481.5,826.5057400000001L484.5,826.5057400000001ZM1328.5,832.50409L1328.5,838.50246L1331.5,838.50246L1331.5,832.50409L1328.5,832.50409ZM484.5,838.50244L484.5,832.50415L481.5,832.50415L481.5,838.50244L484.5,838.50244ZM1328.5,844.50082L1328.5,847.5L1331.5,847.5L1331.5,844.50082L1328.5,844.50082ZM484.5,847.5L484.5,844.50085L481.5,844.50085L481.5,847.5L484.5,847.5Z" fill-rule="evenodd" fill="#29F318" fill-opacity="1"/><rect x="637" y="217" width="539" height="100" rx="32" fill="#40403F" fill-opacity="1"/><rect x="296" y="827" width="374" height="100" rx="32" fill="#40403F" fill-opacity="1"/><rect x="720" y="827" width="374" height="100" rx="32" fill="#40403F" fill-opacity="1"/><rect x="1144" y="827" width="374" height="100" rx="32" fill="#40403F" fill-opacity="1"/><rect x="637" y="671" width="539" height="100" rx="32" fill="#40403F" fill-opacity="1"/><rect x="637" y="359" width="539" height="270" rx="32" fill="#40403F" fill-opacity="1"/><path d="M637 391C637 373.3268880054146 651.3268880054146 359 669 359L1144 359C1161.6731119945855 359 1176 373.3268880054146 1176 391L1176 440C1176 440 1176 440 1176 440L637 440C637 440 637 440 637 440Z" fill="#5A5A5A" fill-opacity="1"/><g><path d="M831.7199998,248.6000004L861.16,248.6000004L861.16,277.84000000000003Q861.16,280.439999,860.219997,281.419998Q859.279999,282.400002,856.959999,282.48Q854.599998,282.560001,852.08,282.240002L851.519999,278.959999Q854.48,279.360001,855.879999,279.360001Q857.16,279.360001,857.559999,278.82Q857.959999,278.279999,857.959999,276.720001L857.959999,271.08L848,271.08L848,282.240002L844.84,282.240002L844.84,271.08L834.8400002,271.08Q834.5599995,274.360001,833.6999998,277.139999Q832.8399997,279.919998,831.0799999,283.360001L828.1199999,281.880001Q829.72,278.759998,830.46,276.639999Q831.1999998,274.52,831.46,271.98Q831.7199998,269.440001,831.7199998,264.92L831.7199998,248.6000004ZM844.84,258.4L844.84,251.7600002L835,251.7600002L835,258.4L844.84,258.4ZM848,258.4L857.959999,258.4L857.959999,251.7600002L848,251.7600002L848,258.4ZM835,267.959999L844.84,267.959999L844.84,261.52L835,261.52L835,266.119999L835,267.959999ZM848,261.52L848,267.959999L857.959999,267.959999L857.959999,261.52L848,261.52ZM901.279999,251.5600014L901.279999,266.48L875.639999,266.48Q875.48,270.440001,874.959999,273.18Q874.439999,275.919998,873.419998,278.240002Q872.400002,280.560001,870.560001,283.279999L867.400002,281.48Q869.52,278.599998,870.580002,276.220001Q871.639999,273.84,872.060001,270.700001Q872.48,267.560001,872.48,262.32L872.48,251.5600014L885.639999,251.5600014Q883.84,248.0400009,883.16,246.9599991L886.599998,245.8800011Q887.360001,247.1199989,889.519997,251.5600014L901.279999,251.5600014ZM875.720001,263.360001L898.040001,263.360001L898.040001,254.560001L875.720001,254.560001L875.720001,261.68L875.720001,263.360001ZM920.360001,248.6800003Q918.360001,251.2000008,915.360001,254.120001Q912.360001,257.040001,909.6800000000001,259.08L907.959999,256.120001Q910.279999,254.440001,913.120003,251.6800003Q915.959999,248.9200001,917.879997,246.5200005L920.360001,248.6800003ZM923.400002,248.7600002L942.36,248.7600002L942.36,251.8800011L923.400002,251.8800011L923.400002,248.7600002ZM920.400002,258.68Q918.919998,260.92,916.519997,263.76L916.519997,282.68L913.3199999999999,282.68L913.3199999999999,267.240002Q911.160004,269.48,908.599998,271.720001L907.239998,268.68Q910.120003,266.16,913.040001,262.880001Q915.959999,259.6,917.879997,256.720001L920.400002,258.68ZM944.04,260.200001L944.04,263.32L937.6,263.32L937.6,277.200001Q937.6,280,936.4,281.220001Q935.2,282.439999,932.36,282.52L931.12,282.52Q928.6800000000001,282.52,926.88,282.32L926.2,279.040001Q929.12,279.439999,931.52,279.439999Q933.12,279.439999,933.6800000000001,278.779999Q934.24,278.119999,934.24,276.279999L934.24,263.32L921.839996,263.32L921.839996,260.200001L944.04,260.200001ZM981.48,255.800001Q981.52,261.52,981.16,267.380001Q980.8,273.24,980.16,276.720001Q979.75999,278.759998,979.12,279.880001Q978.48,281,977.32001,281.5Q976.16,282,974.16,282.040001Q970.48,282.080002,967.03999,281.639999L966.32001,278.360001Q968.60001,278.639999,970.06,278.779999Q971.52,278.919998,973.36,278.919998Q974.60001,278.880001,975.28,278.619999Q975.9599900000001,278.360001,976.36,277.580002Q976.75999,276.799999,977.12,275.15999999999997Q977.56,273.24,977.84,268.540001Q978.12,263.84,978.12,260.28000099999997L978.12,258.880001L965.28,258.880001Q964.52,264.32,962.88,268.440001Q961.24001,272.559999,958.24001,276.080002Q955.24001,279.599998,950.4,283L948.2,280.32Q952.56,277.439999,955.3,274.299999Q958.03999,271.16,959.60001,267.459999Q961.16,263.76,961.96001,258.880001L949.24,258.880001L949.24,255.800001L962.39999,255.800001L962.39999,255.640001Q962.64,253.480001,962.78,250.7000008Q962.92,247.920002,962.88,246.5200005L966.2,246.5200005Q966.08,251.960001,965.67999,255.720001L965.67999,255.800001L981.48,255.800001ZM957.52,254.800001Q956.60001,253.68,954.84,251.7800007Q953.08,249.8800011,952.2,249.0799999L954.56,247.0800018Q955.56,247.920002,957.24001,249.7000008Q958.92,251.4800014,959.92,252.6800003L957.52,254.800001ZM971.9599900000001,272.24Q971.2,270.92,969.25999,268.34Q967.32001,265.76,966.28,264.68L968.84,262.800001Q969.88,263.880001,971.78,266.380001Q973.67999,268.880001,974.56,270.24L971.9599900000001,272.24Z" fill="#FFFFFF" fill-opacity="1"/></g><g><path d="M818.360001,388L818.360001,406L824.119999,406L824.119999,408.599998L787.8,408.599998L787.8,406L793.5999999000001,406L793.5999999000001,388L804.359999,388L804.359999,385.4800014L789.04,385.4800014L789.04,382.8000011L804.359999,382.8000011L804.359999,379.4400024L807.559999,379.4400024L807.559999,382.8000011L822.880001,382.8000011L822.880001,385.4800014L807.559999,385.4800014L807.559999,388L818.360001,388ZM815.24,392.640001L815.24,390.360001L796.719999,390.360001L796.719999,392.640001L815.24,392.640001ZM796.719999,397.16L815.24,397.16L815.24,394.960001L796.719999,394.960001L796.719999,397.16ZM815.24,401.639999L815.24,399.440001L796.719999,399.440001L796.719999,401.639999L815.24,401.639999ZM815.24,403.84L796.719999,403.84L796.719999,406L815.24,406L815.24,403.84ZM788.3599999,413.599998Q795.1599998,411.799999,800.24,409.119999L801.599999,411.799999Q796.36,414.279999,789.52,416.48L788.3599999,413.599998ZM811.16,409.119999Q816.08,410.68,823.239998,413.400002L821.959999,416.200001Q814.279999,413.040001,810.08,411.759998L811.16,409.119999ZM832.880001,386.52L832.880001,391.6L829.759998,391.6L829.759998,383.5600014L845,383.5600014Q843.760002,380.7999992,843.16,379.7600021L846.439999,378.7999992Q846.799999,379.4000015,848.040001,382.4000015L848.559998,383.5600014L862.3199999999999,383.5600014L862.3199999999999,391.68L859.080002,391.68L859.080002,386.52L832.880001,386.52ZM844.32,395.68Q842.760002,394.6,840.259998,393.200001Q837.759998,391.800001,835.880001,390.880001L837.279999,388.280001Q839.279999,389.24,841.700001,390.540001Q844.119999,391.84,845.760002,392.92L844.32,395.68ZM863.6800000000001,405.4L849.919998,405.4Q849.720001,405.92,849.16,406.880001Q859.399994,411.200001,863.360001,412.799999L861.8000030000001,415.799999Q858.440002,414.240002,854.1999969999999,412.360001Q849.959999,410.48,847.16,409.32Q844.799999,411.599998,840.700001,413.18Q836.599998,414.759998,829.959999,416.080002L828.799999,412.959999Q836.52,411.52,840.52,409.799999Q844.52,408.080002,846.279999,405.4L828.279999,405.4L828.279999,402.440001L847.559998,402.440001Q848.239998,400.040001,848.32,396.040001L848.519997,388.560001L851.839996,388.560001Q851.839996,390.200001,851.760002,392.52Q851.6800000000001,394.84,851.599998,396.48Q851.479996,400,850.919998,402.440001L863.6800000000001,402.440001L863.6800000000001,405.4ZM834.119999,393.960001Q836.200001,394.960001,838.880001,396.4Q841.559998,397.84,843.199997,398.92L841.68,401.440001Q839.84,400.28000099999997,837.18,398.76Q834.52,397.240002,832.759998,396.440001L834.119999,393.960001ZM903.84,391.800001L903.84,394.559999L879,394.559999L879,391.800001L890.16,391.800001L890.16,387.280001L884.040001,387.280001Q883.119995,389.200001,882.119995,390.880001L879.440002,389.360001Q880.8000030000001,387.360001,881.879997,384.8800011Q882.959999,382.4000015,883.599998,380L886.4,380.9599991Q885.839996,383,885.239998,384.4400005L890.16,384.4400005L890.16,379.3199997L893.16,379.3199997L893.16,384.4400005L902.2,384.4400005L902.2,387.280001L893.16,387.280001L893.16,391.800001L903.84,391.800001ZM875,389.560001Q874.040001,388.200001,872.139999,385.8400002Q870.239998,383.4800014,869.120003,382.2399998L871.440002,380.2000008Q872.519997,381.3200016,874.360001,383.5200005Q876.1999969999999,385.7200012,877.479996,387.400002L875,389.560001ZM887.2,411.880001Q891.48,412.119999,895.72,412.119999Q900,412.119999,904.24,411.880001L903.56,415.040001Q898.75999,415.240002,895.04,415.240002Q890.84,415.240002,886.6800000000001,415Q883.8000030000001,414.84000000000003,881.8199999999999,414.299999Q879.839996,413.759998,878.279999,412.68Q876.720001,411.599998,874.959999,409.720001L869.959999,415.32L867.760002,412.759998L873.360001,406.84L873.360001,396.16L868.080002,396.16L868.080002,393.200001L876.360001,393.200001L876.360001,406.6Q877.879997,408.48,879.3199999999999,409.560001Q880.760002,410.639999,882.619995,411.18Q884.479996,411.720001,887.2,411.880001ZM901.04,397.84L901.04,408.560001L882.119995,408.560001L882.119995,397.84L901.04,397.84ZM897.92,400.560001L885.239998,400.560001L885.239998,405.76L897.92,405.76L897.92,400.560001ZM940.44,411.32L944.0400099999999,411.32L944.0400099999999,414.360001L907.52,414.360001L907.52,411.32L911.16,411.32L911.16,385.1599998L922.03999,385.1599998Q922.67999,383.6800003,923.3,381.9200001Q923.92,380.1599998,924.2,379.1599998L927.72,379.7999992Q927.39999,380.8400002,926.82001,382.3400002Q926.24001,383.8400002,925.60001,385.1599998L940.44,385.1599998L940.44,411.32ZM919.96001,388.280001L914.32001,388.280001L914.32001,411.32L919.96001,411.32L919.96001,388.280001ZM928.48,411.32L928.48,388.280001L923.08,388.280001L923.08,411.32L928.48,411.32ZM931.60001,411.32L937.28,411.32L937.28,388.280001L931.60001,388.280001L931.60001,411.32ZM976.44,379.8800011L979.84,379.8800011L979.84,415.759998L976.44,415.759998L976.44,379.8800011ZM968.48,381.4000015L968.48,393.32L954.60001,393.32L954.12,398.92L968.67999,398.92Q968.64,403.76,967.92,409.279999Q967.60001,411.639999,966.89999,412.880001Q966.2,414.119999,964.75999,414.639999Q963.32001,415.15999999999997,960.75999,415.15999999999997Q957.88,415.15999999999997,954.48,414.759998L953.84,411.599998Q957.67999,412.15999999999997,960.60001,412.15999999999997Q962.52,412.15999999999997,963.39999,411.32Q964.28,410.48,964.60001,408.360001Q965.12,404.959999,965.28,402.040001L950.52,402.040001L951.48,390.280001L965.08,390.280001L965.08,384.4800014L950.56,384.4800014L950.56,381.4000015L968.48,381.4000015ZM1006.92,387.76Q1008.88,385.7600002,1010.10001,383.7200012Q1011.32001,381.6800003,1012.28,379.2400017L1014.88,380.0400009Q1014.12,381.9200001,1013.24001,383.4800014L1023.92,383.4800014L1023.92,385.8800011L1021.67999,385.8800011Q1020.32001,389.92,1017.67999,392.440001Q1020.32001,393.960001,1024.2,394.960001L1023.08,397.48Q1018.64,396.08,1015.64,394.120001Q1012.67999,396.120001,1008.03999,397.560001L1006.8,395.08Q1011.08,393.92,1013.52,392.440001Q1011.52,390.68,1010.16,388.120001Q1009.52,388.960001,1008.60001,389.960001L1006.92,387.76ZM996.32001,385.8000011L993.56,385.8000011L993.56,384.5600014L988.2,384.5600014L988.2,382.3200016L993.56,382.3200016L993.56,379.6000023L996.32001,379.6000023L996.32001,382.3200016L1000.88,382.3200016L1000.88,379.6000023L1003.64,379.6000023L1003.64,382.3200016L1008.72,382.3200016L1008.72,384.5600014L1003.64,384.5600014L1003.64,386.08L1000.88,386.08L1000.88,384.5600014L996.32001,384.5600014L996.32001,385.8000011ZM991.96001,389.120001Q990.16,391.32,988.12,392.880001L987,390.6Q989.8,388.560001,991.44,385.5600014L993.84,386.280001L993.44,386.960001L1006.8,386.960001Q1006.75999,390.640001,1006.44,394.28000099999997Q1006.32001,395.52,1005.98,396.16Q1005.64,396.800001,1004.86,397.060001Q1004.08,397.32,1002.56,397.32Q1001.67999,397.32,1000.88,397.240002L1000.48,395.16Q1001.2,395.28000099999997,1001.96001,395.28000099999997Q1003.03999,395.28000099999997,1003.39999,395Q1003.75999,394.720001,1003.92,393.76Q1004.2,391.68,1004.28,389.120001L991.96001,389.120001ZM1011.8,385.8800011L1011.72,386Q1013.12,389.08,1015.52,391Q1017.64,389.200001,1018.92,385.8800011L1011.8,385.8800011ZM1000.2,390.68L1000.2,396.32L990.72,396.32L990.72,390.68L1000.2,390.68ZM997.96001,392.52L992.88,392.52L992.88,394.48L997.96001,394.48L997.96001,392.52ZM1008.24001,405.76L1008.24001,408.119999L1023.64,408.119999L1023.64,410.439999L1008.24001,410.439999L1008.24001,411.639999Q1008.24001,413.400002,1007.88,414.279999Q1007.52,415.15999999999997,1006.56,415.540001Q1005.60001,415.919998,1003.72,415.919998Q1000.67999,415.919998,998.48,415.720001L997.96001,413.279999Q1001.16,413.599998,1002.75999,413.599998Q1004.16,413.599998,1004.62,413.080002Q1005.08,412.560001,1005.08,411.119999L1005.08,410.439999L988.36,410.439999L988.36,408.119999L1005.08,408.119999L1005.08,405.76L991.96001,405.76L991.96001,403.52L1005.08,403.52L1005.08,401.240002Q995.44,401.6,990.56,401.6L990.36,399.28000099999997L991.96001,399.28000099999997Q998.44,399.28000099999997,1006.66,398.900002Q1014.88,398.52,1020.2,398L1020.52,400.32Q1015.03999,400.799999,1008.24001,401.08L1008.24001,403.52L1020,403.52L1020,405.76L1008.24001,405.76Z" fill="#FFFFFF" fill-opacity="1"/></g><g><path d="M784.267,475.938999L784.267,472.903L791.296,468.8110008L793.54,468.8110008L793.54,493L790.5699997,493L790.5699997,472.342001L784.267,475.938999ZM804.495998,488.413Q806.310999,489.502001,807.993999,491.0035Q809.676998,492.504999,810.997,494.221001L809.115999,495.937Q806.542,492.34,803.209,489.865L804.495998,488.413ZM864.028,469.4379997L864.028,471.9790001L840.894997,471.9790001L840.894997,477.523Q840.894997,481.978001,840.548496,484.816Q840.201996,487.653999,839.294498,490.112499Q838.386997,492.57099900000003,836.571999,495.507999L834.096996,494.154999Q835.878998,491.382999,836.753498,489.139Q837.627998,486.895,837.941498,484.354Q838.254997,481.813,838.254997,477.853L838.254997,469.4379997L850.629997,469.4379997L848.5840000000001,465.4449997L851.223999,464.8180008Q851.751999,465.7749996,852.181,466.6989994L853.632996,469.4379997L864.028,469.4379997ZM884.158,477.292L897.028,477.292L897.028,479.866001L867.657997,479.866001L867.657997,477.292L881.419,477.292L881.419,472.507L873.729996,472.507Q872.607994,474.552999,871.353996,476.236L869.010994,474.718Q870.726997,472.474001,871.815994,470.4445Q872.904999,468.4150009,873.696999,466.0060005L876.171997,466.8969994Q875.611,468.5799999,874.9839939999999,469.9659996L881.419,469.9659996L881.419,465.4449997L884.158,465.4449997L884.158,469.9659996L895.048,469.9659996L895.048,472.507L884.158,472.507L884.158,477.292ZM874.059998,495.442001L871.353996,495.442001L871.353996,483.298L893.233,483.298L893.233,495.442001L890.494,495.442001L890.494,493.891001L874.059998,493.891001L874.059998,495.442001ZM890.494,491.35L890.494,485.872L874.059998,485.872L874.059998,491.35L890.494,491.35ZM909.931,466.1380005Q908.67699,469.9659996,907.225,473.002001L907.225,495.24399900000003L904.55199,495.24399900000003L904.55199,478.01800000000003Q902.902,480.691,901.12,482.902L899.833,480.163Q901.9449999999999,477.424,903.991,473.464001Q906.0369900000001,469.5039997,907.35699,465.3789997L909.931,466.1380005ZM930.325,481.383999L921.1179999999999,481.383999L921.1179999999999,491.250999L929.4010000000001,491.250999L929.4010000000001,493.891001L909.931,493.891001L909.931,491.250999L918.379,491.250999L918.379,481.383999L909.073,481.383999L909.073,478.645L918.379,478.645L918.379,470.7579994Q914.22099,471.2199993,910.591,471.4179993L910.29399,468.7450008Q914.716,468.5139999,919.64951,467.9200001Q924.58299,467.3260002,928.345,466.5009995L928.90601,469.1739998Q925.40799,469.8670006,921.1179999999999,470.4279995L921.1179999999999,478.645L930.325,478.645L930.325,481.383999ZM951.049,476.368Q955.636,478.117001,963.2919899999999,479.403999L962.6320000000001,481.978001Q958.01199,481.087,954.5305,480.08050000000003Q951.049,479.074001,948.2769900000001,477.754Q942.502,480.394001,934.153,482.407L933.26199,479.866001Q940.35699,478.414001,945.571,476.302Q942.832,474.652,940.12599,472.111Q938.08,474.025,935.605,475.608999L934.153,473.761Q936.562,472.210001,939.0865,469.6690006Q941.61099,467.1280003,943.129,464.8509998L945.53799,465.8409996Q944.845,466.8969994,943.789,468.217001L959.101,468.217001L959.101,470.3950005Q955.47099,473.926001,951.049,476.368ZM941.875,470.4279995Q944.515,473.266001,948.211,475.114Q952.435,473.035,955.207,470.4279995L941.875,470.4279995ZM947.485,480.163Q947.452,480.361,947.3365,481.3675Q947.22099,482.374001,947.056,483.463001L959.629,483.463001Q959.332,487.291,958.63899,491.02Q958.2429999999999,493.165001,957.2695,494.171501Q956.29599,495.178001,954.3489999999999,495.210999Q951.44499,495.277,948.508,494.914001L948.04599,492.504999Q950.62,492.934,953.25999,492.934Q954.481,492.934,955.0255,492.438999Q955.56999,491.944,955.933,490.459Q956.494,488.181999,956.659,485.806L946.59399,485.806Q945.967,488.08299999999997,944.6965,489.733Q943.42599,491.382999,941.248,492.736Q939.06999,494.089001,935.506,495.507999L933.98799,493.33Q937.09,492.20799999999997,939.02049,491.1355Q940.951,490.063,942.0894900000001,488.7925Q943.2280000000001,487.521999,943.789,485.806L935.077,485.806L935.077,483.463001L944.317,483.463001Q944.6469999999999,481.285,944.713,480.130001L947.485,480.163ZM989.09799,486.927999Q991.936,490.261,996.655,493.231001L995.03799,495.507999Q990.35199,492.472,987.448,489.040001Q984.7090000000001,492.240999,979.495,495.574001L978.00999,493.264Q983.15799,490.162001,985.864,486.993999Q983.15799,483.034,981.7719999999999,477.589Q980.98,479.007999,979.858,480.625L977.944,478.546001Q979.759,475.972,981.3595,472.1605Q982.9599900000001,468.3490009,983.521,465.1480007L986.25999,465.5769997Q985.73199,467.953001,984.907,470.5270004L995.995,470.5270004L995.995,473.068001L993.22299,473.068001Q992.7280000000001,477.721,991.804,480.987999Q990.88,484.255001,989.09799,486.927999ZM974.38,465.4449997L976.95399,465.4449997L976.95399,495.342999L974.38,495.342999L974.38,486.136Q970.783,487.653999,969.72699,488.149Q968.737,488.577999,968.04399,489.040001L966.922,486.598Q967.483,486.202,967.6479899999999,485.921501Q967.813,485.641001,967.813,485.112999L967.813,469.1410007L970.354,469.1410007L970.354,484.980999Q971.146,484.684,972.69699,484.056999L974.38,483.396999L974.38,465.4449997ZM983.48799,474.157Q984.049,477.358,985.006,479.9485Q985.963,482.539001,987.481,484.783001Q988.867,482.473,989.57649,479.701Q990.2860000000001,476.92900099999997,990.616,473.068001L983.95,473.068001L983.48799,474.157ZM1028.467,471.0879993L1028.467,473.497L1000.21899,473.497L1000.21899,471.0879993L1008.8979899999999,471.0879993Q1008.205,470.1639996,1006.9675,468.6130009Q1005.73,467.0620003,1005.1030000000001,466.3689995L1007.248,464.8840008Q1007.677,465.3789997,1010.4159999999999,468.6790009L1011.40599,469.8670006L1009.72299,471.0879993L1016.62,471.0879993Q1017.742,469.7350006,1019.0455,467.953001Q1020.3489999999999,466.1709995,1021.23999,464.7520008L1023.68199,466.0720005Q1021.636,469.0090008,1019.953,471.0879993L1028.467,471.0879993ZM1025.134,491.580999L1029.09399,491.580999L1029.09399,493.99L999.592,493.99L999.592,491.580999L1003.552,491.580999L1003.552,482.110001Q1001.67099,483.166,1000.94499,483.562L999.7570000000001,481.251999Q1002.33099,479.931999,1005.367,477.9355Q1008.403,475.938999,1010.44901,474.190001L1012.1320000000001,476.203001Q1009.39301,478.546001,1004.311,481.647999L1024.96899,481.647999Q1019.194,477.919,1016.356,476.236L1017.808,474.157Q1021.33899,476.269001,1028.995,481.186001L1027.5430000000001,483.364L1025.134,481.747L1025.134,491.580999ZM1009.92099,484.024L1006.06,484.024L1006.06,491.580999L1009.92099,491.580999L1009.92099,484.024ZM1012.36299,491.580999L1016.323,491.580999L1016.323,484.024L1012.36299,484.024L1012.36299,491.580999ZM1018.765,491.580999L1022.692,491.580999L1022.692,484.024L1018.765,484.024L1018.765,491.580999Z" fill="#FFFFFF" fill-opacity="1"/></g><g><path d="M787.138,541.393L798.061001,541.393L798.061001,544L782.65,544L782.65,542.118999L790.4709997,533.407Q792.682,530.965,793.507,529.5625Q794.332,528.16,794.332,526.51Q794.332,524.398001,793.177,523.243Q792.022,522.0879993,790.2729998,522.0879993Q788.4910002,522.0879993,787.138,523.2925Q785.7849998,524.497,785.191,526.476999L782.8149999,525.124001Q783.5409999,522.4179993,785.6859999,520.9165001Q787.8309999,519.4150009,790.4709997,519.4150009Q792.385,519.4150009,793.969,520.2234993Q795.552999,521.0319996,796.4935,522.5995007Q797.434,524.167,797.434,526.378Q797.434,528.523,796.378,530.437Q795.322,532.351,792.682,535.255001L787.138,541.393ZM804.495998,539.413Q806.310999,540.502001,807.993999,542.0035Q809.676998,543.504999,810.997,545.221001L809.115999,546.937Q806.542,543.34,803.209,540.865L804.495998,539.413ZM863.565994,520.0090008L863.565994,522.6490002L835.020996,522.6490002L835.020996,520.0090008L848.187996,520.0090008Q847.264,517.7980003,846.736,516.7749996L849.442001,515.8840008Q850.498001,518.1940002,851.157997,520.0090008L863.565994,520.0090008ZM861.552994,532.945Q859.903,531.493,856.8340000000001,529.15Q853.764999,526.806999,851.784996,525.487L853.401993,523.540001Q855.282997,524.728001,858.319,526.972Q861.354996,529.216,863.202995,530.767L861.552994,532.945ZM835.317997,531.097Q837.792999,529.546001,840.152496,527.599001Q842.511997,525.652,844.392998,523.606001L846.405998,525.322001Q844.4590000000001,527.401001,841.983997,529.513Q839.508999,531.625,836.901997,533.407L835.317997,531.097ZM863.433998,546.145Q858.5169980000001,544.825001,855.151001,543.406Q851.784996,541.987,849.309998,540.105999Q846.834999,541.987,843.468998,543.504999Q840.102997,545.022999,835.317997,546.442001L834.096996,543.900999Q838.584999,542.68,841.769497,541.3435Q844.953999,540.007,847.264,538.357Q844.557999,535.783001,841.983997,531.361L844.195,530.007999Q846.603996,534.166,849.309998,536.674Q852.082001,534.067001,854.095001,529.975L856.470993,531.195999Q854.160995,535.618,851.355995,538.323999Q853.698997,539.973999,856.866997,541.195Q860.034996,542.416,864.522995,543.438999L863.433998,546.145ZM895.048,531.922001Q894.949,533.902,894.65199,536.6905Q894.355,539.479,894.058,541.294001Q893.761,542.976999,893.18349,543.884501Q892.606,544.792,891.48399,545.154999Q890.362,545.518002,888.31599,545.518002Q886.6659999999999,545.518002,885.016,545.32L884.521,542.844999Q886.369,543.108999,887.953,543.108999Q889.2729899999999,543.108999,890.0155,542.8615Q890.758,542.614,891.12099,542.036499Q891.48399,541.459,891.682,540.337Q891.91299,539.017,892.12749,537.202Q892.342,535.387001,892.408,534.166L888.25,534.166Q886.963,538.323999,884.3725,541.294001Q881.782,544.264,877.062996,546.838001L875.379997,544.792Q878.4159999999999,543.174999,880.346497,541.657Q882.27699,540.139,883.5145,538.357Q884.752,536.575001,885.544,534.166L881.2869900000001,534.166Q879.472,537.565001,876.667,539.9245Q873.862,542.284,869.307999,544.264L867.9549939999999,542.184999Q871.915001,540.601,874.455994,538.637501Q876.996994,536.674,878.481995,534.166L873.960999,534.166Q871.651001,536.344,869.010994,538.159L867.426994,536.212Q869.571999,534.892,871.733498,532.945Q873.894997,530.998001,875.379997,529.084L872.0799939999999,529.084L872.0799939999999,517.6000004L893.002,517.6000004L893.002,529.084L878.514999,529.084Q877.4259950000001,530.602001,876.2049939999999,531.922001L895.048,531.922001ZM890.461,522.2859993L890.461,519.8770008L874.620995,519.8770008L874.620995,522.2859993L890.461,522.2859993ZM890.461,524.398001L874.620995,524.398001L874.620995,526.872999L890.461,526.872999L890.461,524.398001ZM908.644,517.1049995Q907.62099,520.8010006,906.268,524.200001L906.268,546.375999L903.793,546.375999L903.793,529.315001Q902.671,531.327999,901.21899,533.275L899.8,530.931999Q901.6479899999999,528.259,903.28149,524.530001Q904.915,520.8010006,906.103,516.5769997L908.644,517.1049995ZM910.756,518.2929993L928.80699,518.2929993L928.80699,542.284Q928.80699,543.802,928.444,544.594Q928.08099,545.386002,927.2724900000001,545.699501Q926.46399,546.013,924.979,546.013Q924.35199,546.013,923.032,545.881001L922.504,543.306999Q923.56,543.504999,924.55,543.504999Q925.606,543.504999,925.936,543.108999Q926.26599,542.712999,926.26599,541.492001L926.26599,536.806L920.98599,536.806L920.98599,545.617001L918.54399,545.617001L918.54399,536.806L913.198,536.806Q912.967,539.809,912.25749,542.0695Q911.548,544.33,910.129,546.673L907.654,545.418999Q909.0070000000001,543.274,909.6505,541.574501Q910.29399,539.875,910.52499,537.647499Q910.756,535.42,910.756,531.427L910.756,518.2929993ZM918.54399,526.51L918.54399,520.8339996L913.33,520.8339996L913.33,526.51L918.54399,526.51ZM920.98599,526.51L926.26599,526.51L926.26599,520.8339996L920.98599,520.8339996L920.98599,526.51ZM918.54399,534.298L918.54399,528.985L913.33,528.985L913.33,532.351Q913.33,533.671001,913.297,534.298L918.54399,534.298ZM920.98599,528.985L920.98599,534.298L926.26599,534.298L926.26599,528.985L920.98599,528.985ZM949.66299,534.958L949.66299,542.712999L962.76399,542.712999L962.76399,545.154999L933.922,545.154999L933.922,542.712999L947.0229899999999,542.712999L947.0229899999999,534.958L935.70399,534.958L935.70399,532.450001L947.0229899999999,532.450001L947.0229899999999,528.556L939.532,528.556L939.532,526.476999Q937.222,527.83,934.285,529.182999L933.064,526.740999Q937.948,524.695,941.38,522.2035007Q944.812,519.7119999,947.155,516.6100006L949.66299,516.6100006Q954.481,522.8800011,963.655,526.410999L962.53299,528.919Q959.761,527.797001,957.121,526.278999L957.121,528.556L949.66299,528.556L949.66299,532.450001L960.98199,532.450001L960.98199,534.958L949.66299,534.958ZM948.409,519.151001Q945.30699,522.9460011,940.192,526.080999L956.7909999999999,526.080999Q951.4780000000001,522.9130001,948.409,519.151001ZM952.50099,540.634001Q955.56999,537.136,957.0219999999999,535.123001L959.134,536.641001Q956.39499,540.139,954.3489999999999,542.382999L952.50099,540.634001ZM939.466,535.222Q940.489,536.344,941.75949,537.829Q943.03,539.313999,944.119,540.667L942.205,542.316999Q939.06999,538.423,937.6510000000001,536.872L939.466,535.222Z" fill="#FFFFFF" fill-opacity="1"/></g><g><path d="M793.738,582.097Q795.916,582.790001,796.9885,584.341Q798.061001,585.892,798.061001,588.169001Q798.061001,590.413,797.004999,592.046499Q795.949,593.68,794.2,594.5215Q792.451,595.363001,790.3719997,595.363001Q787.7319999,595.363001,785.5044999,594.01Q783.277,592.657,782.518,590.049999L784.8940001,588.697001Q785.5209999,590.677,787.0555,591.6835Q788.5900002,592.690001,790.3719997,592.690001Q792.319,592.690001,793.622499,591.4855Q794.926,590.281,794.926,588.136Q794.926,583.714001,788.8870001,583.714001L787.8639998,583.714001L787.8969998,581.074001L789.052,581.074001Q791.493999,581.074001,792.7645,579.886Q794.035,578.698,794.035,576.85Q794.035,575.101,792.946,574.111Q791.857,573.1210003,790.1409998,573.1210003Q788.3589997,573.1210003,787.1215,574.177Q785.8839998,575.233,785.224,577.212999L782.848,575.860001Q783.6399999,573.1870003,785.6364999,571.8175011Q787.6329999,570.448,790.3059998,570.448Q793.408,570.448,795.289,572.1970005Q797.17,573.9460011,797.17,576.784Q797.17,578.599001,796.3285,579.985Q795.487,581.371,793.738,582.097ZM804.495998,590.413Q806.310999,591.502001,807.993999,593.0035Q809.676998,594.504999,810.997,596.221001L809.115999,597.937Q806.542,594.34,803.209,591.865L804.495998,590.413ZM844.788998,570.8439999L854.490997,595L851.223999,595L848.5509950000001,588.07L838.551998,588.07L836.010998,595L833.040997,595L842.313995,570.8439999L844.788998,570.8439999ZM847.528,585.43L843.435997,574.771L839.541996,585.43L847.528,585.43ZM860.529999,595L857.593002,595L857.593002,570.8439999L860.529999,570.8439999L860.529999,595ZM868.417,568.4020004L891.319,568.4020004L891.319,576.223L868.417,576.223L868.417,568.4020004ZM888.712,571.5039997L888.712,570.118L871.056999,570.118L871.056999,571.5039997L888.712,571.5039997ZM871.056999,573.0879993L871.056999,574.573L888.712,574.573L888.712,573.0879993L871.056999,573.0879993ZM864.918999,579.721L864.918999,577.872999L894.817,577.872999L894.817,579.721L864.918999,579.721ZM892.2429999999999,593.118999L881.155,593.118999L881.155,594.802L894.454,594.802L894.454,596.650002L865.281998,596.650002L865.281998,594.802L878.613998,594.802L878.613998,593.118999L867.493004,593.118999L867.493004,591.304001L878.613998,591.304001L878.613998,589.587999L868.417,589.587999L868.417,581.371L891.319,581.371L891.319,589.587999L881.155,589.587999L881.155,591.304001L892.2429999999999,591.304001L892.2429999999999,593.118999ZM878.613998,584.638L878.613998,583.087L871.024002,583.087L871.024002,584.638L878.613998,584.638ZM881.155,584.638L888.712,584.638L888.712,583.087L881.155,583.087L881.155,584.638ZM871.024002,586.320999L871.024002,587.872L878.613998,587.872L878.613998,586.320999L871.024002,586.320999ZM881.155,586.320999L881.155,587.872L888.712,587.872L888.712,586.320999L881.155,586.320999ZM908.677,568.1380005Q907.39,571.9659996,905.476,575.761L905.476,597.310001L902.77,597.310001L902.77,580.381001Q901.186,582.889,898.777,585.727001L897.556,582.955Q900.097,579.886,902.374,575.678499Q904.651,571.4710007,906.103,567.2469997L908.677,568.1380005ZM927.388,586.783001Q927.355,587.773001,927.289,589.439499Q927.2230099999999,591.105999,927.12399,592.459Q926.9590000000001,594.570999,926.01849,595.511499Q925.078,596.452,922.8340000000001,596.5840000000001Q921.448,596.682999,920.02901,596.682999Q918.67599,596.682999,917.2239999999999,596.5840000000001Q914.94701,596.418999,914.0065,595.396Q913.06599,594.372999,913.06599,591.865L913.06599,585.958Q910.888,587.41,908.776,588.631001L907.357,586.156Q910.492,584.374001,913.06599,582.493L913.06599,567.4780006L915.80499,567.4780006L915.80499,580.414001Q920.392,576.718,924.91299,571.5699997L926.92599,573.6159992Q921.3489999999999,579.754,915.80499,583.978001L915.80499,591.205Q915.80499,592.624001,916.23401,593.218Q916.66299,593.812,917.91701,593.944Q919.006,594.042999,920.12801,594.042999Q921.217,594.042999,922.306,593.944Q923.52701,593.812,924.0385,593.2675Q924.55,592.723,924.616,591.436001Q924.68201,590.215,924.73151,588.6145Q924.78101,587.014,924.78101,586.123001L927.388,586.783001ZM953.689,588.927999Q956.52701,592.261,961.246,595.231001L959.629,597.507999Q954.94299,594.472,952.039,591.040001Q949.3,594.240999,944.086,597.574001L942.601,595.264Q947.74899,592.162001,950.455,588.993999Q947.74899,585.034,946.36301,579.589Q945.571,581.007999,944.44901,582.625L942.535,580.546001Q944.35001,577.972,945.9505,574.1605Q947.55099,570.3490009,948.112,567.1480007L950.851,567.5769997Q950.323,569.953001,949.498,572.5270004L960.586,572.5270004L960.586,575.068001L957.814,575.068001Q957.319,579.721,956.395,582.987999Q955.47101,586.255001,953.689,588.927999ZM938.97101,567.4449997L941.545,567.4449997L941.545,597.342999L938.97101,597.342999L938.97101,588.136Q935.37401,589.653999,934.31799,590.149Q933.328,590.577999,932.63499,591.040001L931.513,588.598Q932.07401,588.202,932.239,587.921501Q932.40401,587.641001,932.40401,587.112999L932.40401,571.1410007L934.94501,571.1410007L934.94501,586.980999Q935.737,586.684,937.28799,586.056999L938.97101,585.396999L938.97101,567.4449997ZM948.07899,576.157Q948.64,579.358,949.597,581.9485Q950.554,584.539001,952.07201,586.783001Q953.4580100000001,584.473,954.1675,581.701Q954.877,578.929001,955.207,575.068001L948.5409999999999,575.068001L948.07899,576.157ZM993.058,573.0879993L993.058,575.497L964.81,575.497L964.81,573.0879993L973.489,573.0879993Q972.79601,572.1639996,971.5585,570.6130009Q970.321,569.0620003,969.694,568.3689995L971.8389999999999,566.8840008Q972.26801,567.3789997,975.0070000000001,570.6790009L975.99699,571.8670006L974.314,573.0879993L981.211,573.0879993Q982.3330100000001,571.7350006,983.63651,569.953001Q984.94,568.1709995,985.83099,566.7520008L988.2729899999999,568.0720005Q986.2270100000001,571.0090008,984.54401,573.0879993L993.058,573.0879993ZM989.72501,593.580999L993.685,593.580999L993.685,595.99L964.183,595.99L964.183,593.580999L968.14301,593.580999L968.14301,584.110001Q966.26199,585.166,965.5360000000001,585.562L964.3480099999999,583.251999Q966.922,581.931999,969.9580100000001,579.9355Q972.994,577.938999,975.0400099999999,576.190001L976.7230099999999,578.203001Q973.98401,580.546001,968.90201,583.647999L989.56,583.647999Q983.785,579.919,980.94701,578.236L982.399,576.157Q985.92999,578.269001,993.586,583.186001L992.134,585.364L989.72501,583.747L989.72501,593.580999ZM974.51199,586.024L970.6510000000001,586.024L970.6510000000001,593.580999L974.51199,593.580999L974.51199,586.024ZM976.95399,593.580999L980.914,593.580999L980.914,586.024L976.95399,586.024L976.95399,593.580999ZM983.356,593.580999L987.283,593.580999L987.283,586.024L983.356,586.024L983.356,593.580999Z" fill="#FFFFFF" fill-opacity="1"/></g><g><path d="M807.639999,721.799999L823.879997,721.799999L823.879997,724.84L807.639999,724.84L807.639999,737.720001L804.32,737.720001L804.32,724.84L788.04,724.84L788.04,721.799999L804.32,721.799999L804.32,706.4400005L789.6799998,706.4400005L789.6799998,703.4000015L822.279999,703.4000015L822.279999,706.4400005L807.639999,706.4400005L807.639999,721.799999ZM811.199999,718.08Q812.639999,716.48,814.74,713.52Q816.84,710.560001,818,708.68L820.599998,710.480001Q819.48,712.280001,817.32,715.280001Q815.16,718.280001,813.76,719.92L811.199999,718.08ZM793.8399997,708.720001Q795.1999998,710.4,797.32,713.280001Q799.44,716.16,800.719999,718.08L798.08,719.880001Q796.8,717.84,794.7200003,714.960001Q792.6399999,712.08,791.3599997,710.52L793.8399997,708.720001ZM852.959999,705.2800007Q855,707.3199997,858.279999,711.02Q861.559998,714.720001,863.559998,717.24L861.080002,719.400002Q860.6800000000001,718.880001,858.8000030000001,716.559999L858.160004,715.800001Q851.760002,716.280001,845.34,716.76Q838.919998,717.24,832.52,717.76L829.759998,717.960001L828.880001,714.640001Q830.360001,714.4,831.040001,714.18Q831.720001,713.960001,832.239998,713.560001Q834.52,711.800001,837.880001,707.8400002Q841.239998,703.8800011,843.279999,700.7999992L846.199997,702.4799995Q844,705.6000004,841.119999,709.1Q838.239998,712.6,836.16,714.440001Q839.68,714.120001,845.959999,713.68L855.720001,712.960001Q852.440002,709.200001,850.599998,707.3600006L852.959999,705.2800007ZM835.84,737.959999L832.599998,737.959999L832.599998,721.240002L859.279999,721.240002L859.279999,737.959999L856.040001,737.959999L856.040001,735.799999L835.84,735.799999L835.84,737.959999ZM856.040001,732.759998L856.040001,724.400002L835.84,724.400002L835.84,732.759998L856.040001,732.759998ZM895.44,727.639999Q898.88,731.68,904.6,735.279999L902.64,738.040001Q896.96,734.360001,893.44,730.200001Q890.12,734.080002,883.8000030000001,738.119999L882,735.32Q888.24,731.560001,891.52,727.720001Q888.24,722.92,886.56,716.32Q885.599998,718.040001,884.239998,720L881.919998,717.48Q884.119995,714.360001,886.06,709.74Q888,705.1200008,888.6800000000001,701.2400017L892,701.7600021Q891.36,704.6400013,890.36,707.7600002L903.8,707.7600002L903.8,710.84L900.44,710.84Q899.84,716.48,898.72,720.440001Q897.6,724.400002,895.44,727.639999ZM877.599998,701.6000023L880.720001,701.6000023L880.720001,737.84L877.599998,737.84L877.599998,726.68Q873.239998,728.52,871.959999,729.120001Q870.760002,729.639999,869.919998,730.200001L868.559998,727.24Q869.239998,726.76,869.440002,726.42Q869.639999,726.08,869.639999,725.440001L869.639999,706.0799999L872.720001,706.0799999L872.720001,725.280001Q873.6800000000001,724.92,875.559998,724.16L877.599998,723.360001L877.599998,701.6000023ZM888.64,712.16Q889.3199999999999,716.040001,890.48,719.18Q891.64,722.32,893.48,725.040001Q895.16,722.240002,896.02,718.880001Q896.88,715.52,897.28,710.84L889.2,710.84L888.64,712.16ZM927.60001,707.0799999Q928.56,715.800001,932.53999,722.5Q936.52,729.200001,944.32001,734.48L942.12,737.279999Q935.60001,732.48,931.7,727.120001Q927.8,721.76,926,714.52Q922.52,727.040001,909.72,737.360001L907.28,734.639999Q915.64,728.4,919.64,721.58Q923.64,714.76,924.52,707.5200005Q924.12,706.9200001,923.3,706.6599998Q922.48,706.4000015,921.08,706.4000015L915.39999,706.4000015L915.39999,703.0400009L922.32001,703.0400009Q924.88,703.0400009,926.14,703.960001Q927.39999,704.8800011,927.60001,707.0799999ZM948.75999,720.92Q948.75999,715.280001,950.64,710.5Q952.52,705.7200012,955.8,702.4000015L959.03999,702.4000015Q955.8,706.3199997,954.06,710.860001Q952.32001,715.4,952.32001,720.92Q952.32001,726.48,954.06,731.040001Q955.8,735.599998,959.03999,739.439999L955.8,739.439999Q952.52,736.119999,950.64,731.360001Q948.75999,726.6,948.75999,720.92ZM982.23999,705.7200012L985.79999,705.7200012L985.79999,723.16Q985.79999,726.92,984.44,729.700001Q983.07999,732.48,980.5,733.959999Q977.92,735.439999,974.36,735.439999Q969,735.439999,965.98,732.16Q962.9599900000001,728.880001,962.9599900000001,723.16L962.9599900000001,705.7200012L966.51999,705.7200012L966.51999,722.6Q966.51999,727.24,968.51999,729.700001Q970.51999,732.16,974.36,732.16Q978.2,732.16,980.22,729.700001Q982.23999,727.24,982.23999,722.6L982.23999,705.7200012ZM1010.88,726.880001Q1010.88,729.4,1009.72,731.34Q1008.56,733.279999,1006.32001,734.360001Q1004.08,735.439999,1001,735.439999Q996.72,735.439999,993.67999,733.439999Q990.64,731.439999,989.67999,728.120001L992.56,726.440001Q993.64,729.200001,995.75999,730.68Q997.88,732.16,1001.03999,732.16Q1003.92,732.16,1005.52,730.880001Q1007.12,729.6,1007.12,727.32Q1007.12,725.48,1006.12,724.34Q1005.12,723.200001,1003.66,722.560001Q1002.2,721.92,999.64,721.16Q996.8,720.32,995.06,719.560001Q993.32001,718.800001,992.12,717.280001Q990.92,715.76,990.92,713.280001Q990.92,710.76,992.2,708.940001Q993.48,707.1200008,995.74001,706.1800003Q998,705.2399998,1000.8,705.2399998Q1004.72,705.2399998,1007.14,706.960001Q1009.56,708.68,1010.39999,711.32L1007.52,713Q1006.60001,710.880001,1004.98,709.68Q1003.36,708.480001,1000.67999,708.480001Q997.96001,708.480001,996.32001,709.700001Q994.67999,710.92,994.67999,712.960001Q994.67999,714.48,995.58,715.440001Q996.48,716.4,997.84,716.960001Q999.2,717.52,1001.56,718.200001Q1004.56,719.08,1006.39999,719.92Q1008.24001,720.76,1009.56,722.440001Q1010.88,724.119999,1010.88,726.880001ZM1023.39999,705.7200012Q1027.67999,705.7200012,1031.10001,707.4400005Q1034.52,709.16,1036.48,712.460001Q1038.44,715.76,1038.44,720.32Q1038.44,724.92,1036.5,728.220001Q1034.56,731.52,1031.1399999999999,733.259998Q1027.72,735,1023.39999,735L1015.39999,735L1015.39999,705.7200012L1023.39999,705.7200012ZM1022.92,731.84Q1028.44,731.84,1031.56,728.84Q1034.67999,725.84,1034.67999,720.32Q1034.67999,714.880001,1031.53999,711.860001Q1028.39999,708.84,1022.92,708.84L1018.9599900000001,708.84L1018.9599900000001,731.84L1022.92,731.84ZM1039.67999,705.7200012L1061.44,705.7200012L1061.44,708.880001L1052.32001,708.880001L1052.32001,735L1048.76001,735L1048.76001,708.880001L1039.67999,708.880001L1039.67999,705.7200012ZM1072.9199800000001,720.92Q1072.9199800000001,726.6,1071.03998,731.360001Q1069.15997,736.119999,1065.87997,739.439999L1062.63998,739.439999Q1065.87997,735.599998,1067.62,731.040001Q1069.35999,726.48,1069.35999,720.92Q1069.35999,715.4,1067.62,710.860001Q1065.87997,706.3199997,1062.63998,702.4000015L1065.87997,702.4000015Q1069.15997,705.7200012,1071.03998,710.5Q1072.9199800000001,715.280001,1072.9199800000001,720.92Z" fill="#FFFFFF" fill-opacity="1"/></g><g><path d="M397.48,856.2000008Q399.4,861.6800003,402.379999,865.32Q405.360001,868.960001,410.639999,872.24L408.799999,875.240002Q403.16,871.6,399.92,867.560001Q396.68,863.52,394.439999,857.3199997L397.48,856.2000008ZM389.52,857.8800011Q387.2,863.08,383.86,867.16Q380.5199995,871.24,375.4399998,875L373.5599999,872.24Q382.24,866.040001,386.48,856.6399994L389.52,857.8800011ZM379.48,875.119999L379.48,871.92L403.24,871.92Q403.119999,874.92,402.779999,878.900002Q402.439999,882.880001,401.959999,886.439999Q401.679998,888.560001,401,889.740002Q400.32,890.919998,398.98,891.439999Q397.639999,891.959999,395.359999,892L394.039999,892Q391.359999,892,389.440001,891.799999L388.84,888.68Q391.6,889.040001,394.4,889.040001Q395.92,889.040001,396.76,888.720001Q397.599998,888.400002,398.019999,887.599998Q398.439999,886.799999,398.68,885.279999Q399.039999,882.959999,399.32,879.940001Q399.599998,876.92,399.68,875.119999L388.359999,875.119999Q388.24,876.84,388.199999,877.360001Q387.92,881.119999,386.9,883.720001Q385.88,886.32,383.54,888.599998Q381.1999998,890.880001,376.8399997,893.360001L374.6399999,890.560001Q378.52,888.560001,380.5999994,886.700001Q382.679999,884.84,383.58,882.700001Q384.48,880.560001,384.88,877.32Q384.96,876.68,385.08,875.119999L379.48,875.119999ZM414.52,872.040001L413.880001,868.880001Q414.52,868.640001,414.860001,868.440001Q415.200001,868.24,415.560001,867.84Q416.720001,866.52,418.82,862.9000015Q420.919998,859.2800007,422.400002,856.1599998L425.239998,857.6000023Q423.799999,860.6000004,421.919998,863.900002Q420.040001,867.200001,418.84000000000003,868.68L424.400002,867.720001Q425.15999999999997,866.52,426.919998,863.440001L429.559998,865.08L428.32,867.24Q426.439999,870.52,424.700001,873.32Q422.959999,876.119999,421.040001,878.52L428.199997,876.6L428.279999,879.76Q423.439999,880.68,417.639999,882.040001Q415.52,882.52,415.639999,882.48L414.959999,879.280001Q416,878.92,416.580002,878.619999Q417.15999999999997,878.32,417.68,877.76Q419.400002,875.880001,422.639999,870.6Q419.919998,870.960001,416.84000000000003,871.559999L414.52,872.040001ZM441.119995,863.24L441.119995,887.959999L450.080002,887.959999L450.080002,891.080002L428.119999,891.080002L428.119999,887.959999L437.760002,887.959999L437.760002,863.24L429.919998,863.24L429.919998,859.9200001L449,859.9200001L449,863.24L441.119995,863.24ZM413.759998,887.16Q415.279999,886.880001,420.580002,885.66Q425.880001,884.440001,427.599998,883.959999L427.84000000000003,887.279999Q425.200001,887.799999,414.240002,890.32L413.759998,887.16ZM489.75999,882.16Q489.6,886.16,489.52,887.360001Q489.39999,889.080002,488.88,890.060001Q488.36,891.040001,487.2,891.580002Q486.04,892.119999,483.96,892.32Q480.76,892.639999,477.96,892.639999Q475.2,892.639999,471.919998,892.32Q469.080002,892.040001,467.900002,890.759998Q466.720001,889.48,466.720001,886.439999L466.720001,872.640001L464.199997,873.440001L463.440002,870.52L466.720001,869.52L466.720001,860.0400009L469.760002,860.0400009L469.760002,868.560001L475.08,866.92L475.08,856.5600014L478.12,856.5600014L478.12,865.960001L487.44,863.08Q487.44,865.6,487.2,870.48Q486.96,875.360001,486.72,877.280001Q486.44,879.560001,485.6,880.52Q484.75999,881.48,482.72,881.48Q481.15999999999997,881.48,480,881.279999L479.4,878.280001Q480.48,878.6,481.72,878.6Q482.64,878.6,483.06,878Q483.48,877.400002,483.72,875.84Q484.2,872.52,484.2,867.16L478.12,869.08L478.12,885.119999L475.08,885.119999L475.08,870.040001L469.760002,871.68L469.760002,885.360001Q469.760002,886.84,469.979996,887.599998Q470.199997,888.360001,470.879997,888.740002Q471.559998,889.119999,473,889.32Q475.64,889.639999,477.84000000000003,889.639999Q480.2,889.639999,482.88,889.32Q484.36,889.119999,485.1,888.779999Q485.84000000000003,888.439999,486.12,887.779999Q486.39999,887.119999,486.44,885.880001Q486.56,883.6,486.56,881.560001L489.75999,882.16ZM462.720001,865.960001Q458.839996,862.8400002,455.400002,860.2399998L457.199997,857.7200012Q460.519997,860.1599998,464.519997,863.32L462.720001,865.960001ZM461,875.360001Q455.68,871.200001,453.360001,869.52L455.160004,866.92Q458.199997,869.120001,462.839996,872.68L461,875.360001ZM454.480003,891.279999Q455.599998,888.84,457.68,884.02Q459.760002,879.200001,460.360001,877.48L463.279999,878.68Q459.120003,888.32,457.400002,892.599998L454.480003,891.279999Z" fill="#FFFFFF" fill-opacity="1"/></g><g><path d="M528.599999,871.32Q531.2,871.32,533.24,872.540001Q535.279999,873.76,536.4,875.900002Q537.52,878.040001,537.52,880.76Q537.52,883.6,536.279999,885.799999Q535.039999,888,532.88,889.220001Q530.719999,890.439999,528.08,890.439999Q525.1599998,890.439999,522.9000000999999,888.98Q520.6399999,887.52,519.76,884.720001L522.6399999,883.08Q523.3599997,885.119999,524.7399998,886.16Q526.1199999,887.200001,528.08,887.200001Q530.719999,887.200001,532.24,885.439999Q533.76,883.68,533.76,880.92Q533.76,878.240002,532.299999,876.400002Q530.84,874.560001,528.08,874.560001Q524.5999999000001,874.560001,522.6399999,877.720001L520.3599999,876.560001L522.3599997,860.6400013L536.199999,860.6400013L536.199999,863.76L525.4799995,863.76L524.3199997,872.440001Q526.0799999,871.32,528.599999,871.32ZM560.720001,875.360001Q560.720001,882.799999,558.259998,886.619999Q555.799999,890.439999,551.199997,890.439999Q546.639999,890.439999,544.18,886.599998Q541.719999,882.76,541.719999,875.360001Q541.719999,867.92,544.18,864.060001Q546.639999,860.2000008,551.199997,860.2000008Q555.799999,860.2000008,558.259998,864.040001Q560.720001,867.880001,560.720001,875.360001ZM545.519999,875.360001Q545.519999,881.32,546.9,884.24Q548.279999,887.16,551.199997,887.16Q554.119999,887.16,555.519997,884.26Q556.919998,881.360001,556.919998,875.360001Q556.919998,869.32,555.519997,866.380001Q554.119999,863.440001,551.199997,863.440001Q548.279999,863.440001,546.9,866.380001Q545.519999,869.32,545.519999,875.360001ZM576.32,866.84Q576.32,868.84,575.459999,870.34Q574.599998,871.84,573.119999,872.640001Q571.639999,873.440001,569.839996,873.440001Q568.039997,873.440001,566.579998,872.640001Q565.119999,871.84,564.259998,870.34Q563.399998,868.84,563.399998,866.84Q563.399998,864.84,564.259998,863.34Q565.119999,861.8400002,566.579998,861.0400009Q568.039997,860.2399998,569.839996,860.2399998Q571.639999,860.2399998,573.119999,861.0400009Q574.599998,861.8400002,575.459999,863.34Q576.32,864.84,576.32,866.84ZM584.919998,860.6800003L588.599998,860.6800003L571.119999,890L567.439999,890L584.919998,860.6800003ZM573.119999,866.84Q573.119999,865.200001,572.18,864.18Q571.239998,863.16,569.839996,863.16Q568.48,863.16,567.539997,864.18Q566.599998,865.200001,566.599998,866.84Q566.599998,868.48,567.519997,869.5Q568.439999,870.52,569.839996,870.52Q571.239998,870.52,572.18,869.5Q573.119999,868.48,573.119999,866.84ZM592.639999,883.84Q592.639999,885.84,591.779999,887.34Q590.919998,888.84,589.440002,889.639999Q587.959999,890.439999,586.159996,890.439999Q584.360001,890.439999,582.899994,889.639999Q581.440002,888.84,580.579998,887.34Q579.719997,885.84,579.719997,883.84Q579.719997,881.84,580.579998,880.34Q581.440002,878.84,582.899994,878.040001Q584.360001,877.240002,586.159996,877.240002Q587.959999,877.240002,589.440002,878.040001Q590.919998,878.84,591.779999,880.34Q592.639999,881.84,592.639999,883.84ZM589.440002,883.84Q589.440002,882.200001,588.5,881.18Q587.559998,880.16,586.159996,880.16Q584.799995,880.16,583.860001,881.18Q582.919998,882.200001,582.919998,883.84Q582.919998,885.48,583.839996,886.5Q584.759995,887.52,586.159996,887.52Q587.559998,887.52,588.5,886.5Q589.440002,885.48,589.440002,883.84Z" fill="#B9B9B9" fill-opacity="1"/></g><g><path d="M986.4400001,886.84L999.68,886.84L999.68,890L981,890L981,887.720001L990.48,877.16Q993.16,874.200001,994.16,872.5Q995.16,870.800001,995.16,868.800001Q995.16,866.24,993.759999,864.84Q992.36,863.440001,990.24,863.440001Q988.0799999,863.440001,986.4400001,864.9Q984.7999997,866.360001,984.0799999,868.76L981.2,867.120001Q982.0799999,863.84,984.6799998,862.0200005Q987.2799997,860.2000008,990.48,860.2000008Q992.799999,860.2000008,994.719999,861.1800003Q996.639999,862.1599998,997.779999,864.060001Q998.92,865.960001,998.92,868.640001Q998.92,871.24,997.639999,873.559999Q996.359999,875.880001,993.16,879.400002L986.4400001,886.84ZM1013.399998,871.32Q1016,871.32,1018.040001,872.540001Q1020.079998,873.76,1021.199997,875.900002Q1022.32,878.040001,1022.32,880.76Q1022.32,883.6,1021.079998,885.799999Q1019.839996,888,1017.68,889.220001Q1015.519997,890.439999,1012.879997,890.439999Q1009.959999,890.439999,1007.699999,888.98Q1005.439999,887.52,1004.559999,884.720001L1007.439999,883.08Q1008.16,885.119999,1009.539999,886.16Q1010.919998,887.200001,1012.879997,887.200001Q1015.519997,887.200001,1017.040001,885.439999Q1018.559998,883.68,1018.559998,880.92Q1018.559998,878.240002,1017.099998,876.400002Q1015.639999,874.560001,1012.879997,874.560001Q1009.4,874.560001,1007.439999,877.720001L1005.16,876.560001L1007.16,860.6400013L1021,860.6400013L1021,863.76L1010.279999,863.76L1009.119999,872.440001Q1010.879999,871.32,1013.399998,871.32ZM1038.32,866.84Q1038.32,868.84,1037.459999,870.34Q1036.599998,871.84,1035.119999,872.640001Q1033.639999,873.440001,1031.839996,873.440001Q1030.039997,873.440001,1028.579998,872.640001Q1027.119999,871.84,1026.259998,870.34Q1025.399998,868.84,1025.399998,866.84Q1025.399998,864.84,1026.259998,863.34Q1027.119999,861.8400002,1028.579998,861.0400009Q1030.039997,860.2399998,1031.839996,860.2399998Q1033.639999,860.2399998,1035.119999,861.0400009Q1036.599998,861.8400002,1037.459999,863.34Q1038.32,864.84,1038.32,866.84ZM1046.919998,860.6800003L1050.599998,860.6800003L1033.119999,890L1029.439999,890L1046.919998,860.6800003ZM1035.119999,866.84Q1035.119999,865.200001,1034.18,864.18Q1033.239998,863.16,1031.839996,863.16Q1030.48,863.16,1029.539997,864.18Q1028.599998,865.200001,1028.599998,866.84Q1028.599998,868.48,1029.519997,869.5Q1030.439999,870.52,1031.839996,870.52Q1033.239998,870.52,1034.18,869.5Q1035.119999,868.48,1035.119999,866.84ZM1054.639999,883.84Q1054.639999,885.84,1053.779999,887.34Q1052.919998,888.84,1051.440002,889.639999Q1049.959999,890.439999,1048.159996,890.439999Q1046.360001,890.439999,1044.899994,889.639999Q1043.440002,888.84,1042.579998,887.34Q1041.719997,885.84,1041.719997,883.84Q1041.719997,881.84,1042.579998,880.34Q1043.440002,878.84,1044.899994,878.040001Q1046.360001,877.240002,1048.159996,877.240002Q1049.959999,877.240002,1051.440002,878.040001Q1052.919998,878.84,1053.779999,880.34Q1054.639999,881.84,1054.639999,883.84ZM1051.440002,883.84Q1051.440002,882.200001,1050.5,881.18Q1049.559998,880.16,1048.159996,880.16Q1046.799995,880.16,1045.860001,881.18Q1044.919998,882.200001,1044.919998,883.84Q1044.919998,885.48,1045.839996,886.5Q1046.759995,887.52,1048.159996,887.52Q1049.559998,887.52,1050.5,886.5Q1051.440002,885.48,1051.440002,883.84Z" fill="#B9B9B9" fill-opacity="1"/></g><g><path d="M779,860.6800003L786.199999,884.120001L792.84,860.7200012L796.279999,860.7200012L787.439999,890L784.599998,890L777.4,867.32L770.52,890L767.7199993,890L758.35999998,860.7200012L762.1199999,860.7200012L769.32,884.120001L776,860.6800003L779,860.6800003ZM808.68,860.7200012L820.439999,890L816.48,890L813.239998,881.6L801.119999,881.6L798.040001,890L794.439999,890L805.68,860.7200012L808.68,860.7200012ZM812,878.400002L807.040001,865.480001L802.32,878.400002L812,878.400002ZM827.200005,860.7200012L843.480003,883.639999L843.480003,860.7200012L846.839996,860.7200012L846.839996,890L843.839996,890L827.559998,867.040001L827.559998,890L824.200005,890L824.200005,860.7200012L827.200005,860.7200012ZM850.8000030000001,860.7200012L872.56,860.7200012L872.56,863.880001L863.44,863.880001L863.44,890L859.88,890L859.88,863.880001L850.8000030000001,863.880001L850.8000030000001,860.7200012ZM876.96,892.560001L876.96,858.3600006L908.56,858.3600006L908.56,892.560001L905.32001,892.560001L905.32001,890.040001L880.28,890.040001L880.28,892.560001L876.96,892.560001ZM880.28,861.6800003L880.28,886.880001L905.32001,886.880001L905.32001,861.6800003L880.28,861.6800003ZM885.3199999999999,881.560001L885.3199999999999,866.960001L900.2,866.960001L900.2,881.560001L885.3199999999999,881.560001ZM888.2,878.639999L897.32001,878.639999L897.32001,869.880001L888.2,869.880001L888.2,878.639999ZM949.96001,861.8000011Q949.96001,875.200001,949.12001,886.84Q948.92001,889.759998,947.72,890.959999Q946.52,892.16,943.64001,892.200001Q940.84001,892.279999,938.60001,892L937.96001,889Q940.0400099999999,889.32,942.64001,889.32Q944.12001,889.32,944.82001,889.040001Q945.52,888.759998,945.82001,888.040001Q946.12001,887.32,946.24001,885.760002Q946.92001,877.639999,946.92001,866.84L946.92001,864.84L935.76001,864.84Q934.12001,868.16,932.92001,870.08L930.28001,868.52Q932.0400099999999,865.76,933.52,862.5Q935,859.2399998,935.92001,856.1199989L938.76001,856.7999992Q938.16,859.0400009,937.0400099999999,861.8000011L949.96001,861.8000011ZM927.0400099999999,862.0799999L919.84001,862.0799999L919.84001,882.280001L917.12001,882.280001L917.12001,859.0799999L929.8,859.0799999L929.8,882.16L927.0400099999999,882.16L927.0400099999999,862.0799999ZM924.88,877.48Q924.88,880.16,924.56001,881.959999Q929.16,886.720001,931.56001,889.52L929.36002,891.759998Q927.4000100000001,889.200001,923.72,885Q922.88,887.200001,921.20001,889.18Q919.52,891.16,916.76001,893.32L914.68001,890.959999Q917.60001,888.919998,919.18001,886.98Q920.76001,885.040001,921.44,882.639999Q922.12001,880.24,922.12001,876.76L922.12001,865.08L924.88,865.08L924.88,877.48ZM943.20001,885.360001Q942.48001,883.120001,942.32001,882.639999L934.92001,884.040001L931.56001,884.639999L930.60001,881.720001Q931.48001,881.360001,932.08,880.200001Q934.28001,875.84,936.68001,867.68L939.44,868.48Q938.60001,871.4,937.22,875.16Q935.84001,878.92,934.68001,881.400002Q936.92001,880.92,938.08,880.720001L941.44,880.040001Q940,875.959999,939.24001,874.16L941.8,873.200001Q942.68001,875.400002,943.84001,878.66Q945,881.92,945.76001,884.4L943.20001,885.360001Z" fill="#FFFFFF" fill-opacity="1"/></g><g><path d="M1412.4400001,886.84L1425.68,886.84L1425.68,890L1407,890L1407,887.720001L1416.48,877.16Q1419.16,874.200001,1420.16,872.5Q1421.16,870.800001,1421.16,868.800001Q1421.16,866.24,1419.759999,864.84Q1418.36,863.440001,1416.24,863.440001Q1414.0799999,863.440001,1412.4400001,864.9Q1410.7999997,866.360001,1410.0799999,868.76L1407.2,867.120001Q1408.0799999,863.84,1410.6799998,862.0200005Q1413.2799997,860.2000008,1416.48,860.2000008Q1418.799999,860.2000008,1420.719999,861.1800003Q1422.639999,862.1599998,1423.779999,864.060001Q1424.92,865.960001,1424.92,868.640001Q1424.92,871.24,1423.639999,873.559999Q1422.359999,875.880001,1419.16,879.400002L1412.4400001,886.84ZM1439.399998,871.32Q1442,871.32,1444.040001,872.540001Q1446.079998,873.76,1447.199997,875.900002Q1448.32,878.040001,1448.32,880.76Q1448.32,883.6,1447.079998,885.799999Q1445.839996,888,1443.68,889.220001Q1441.519997,890.439999,1438.879997,890.439999Q1435.959999,890.439999,1433.699999,888.98Q1431.439999,887.52,1430.559999,884.720001L1433.439999,883.08Q1434.16,885.119999,1435.539999,886.16Q1436.919998,887.200001,1438.879997,887.200001Q1441.519997,887.200001,1443.040001,885.439999Q1444.559998,883.68,1444.559998,880.92Q1444.559998,878.240002,1443.099998,876.400002Q1441.639999,874.560001,1438.879997,874.560001Q1435.4,874.560001,1433.439999,877.720001L1431.16,876.560001L1433.16,860.6400013L1447,860.6400013L1447,863.76L1436.279999,863.76L1435.119999,872.440001Q1436.879999,871.32,1439.399998,871.32ZM1464.32,866.84Q1464.32,868.84,1463.459999,870.34Q1462.599998,871.84,1461.119999,872.640001Q1459.639999,873.440001,1457.839996,873.440001Q1456.039997,873.440001,1454.579998,872.640001Q1453.119999,871.84,1452.259998,870.34Q1451.399998,868.84,1451.399998,866.84Q1451.399998,864.84,1452.259998,863.34Q1453.119999,861.8400002,1454.579998,861.0400009Q1456.039997,860.2399998,1457.839996,860.2399998Q1459.639999,860.2399998,1461.119999,861.0400009Q1462.599998,861.8400002,1463.459999,863.34Q1464.32,864.84,1464.32,866.84ZM1472.919998,860.6800003L1476.599998,860.6800003L1459.119999,890L1455.439999,890L1472.919998,860.6800003ZM1461.119999,866.84Q1461.119999,865.200001,1460.18,864.18Q1459.239998,863.16,1457.839996,863.16Q1456.48,863.16,1455.539997,864.18Q1454.599998,865.200001,1454.599998,866.84Q1454.599998,868.48,1455.519997,869.5Q1456.439999,870.52,1457.839996,870.52Q1459.239998,870.52,1460.18,869.5Q1461.119999,868.48,1461.119999,866.84ZM1480.639999,883.84Q1480.639999,885.84,1479.779999,887.34Q1478.919998,888.84,1477.440002,889.639999Q1475.959999,890.439999,1474.159996,890.439999Q1472.360001,890.439999,1470.899994,889.639999Q1469.440002,888.84,1468.579998,887.34Q1467.719997,885.84,1467.719997,883.84Q1467.719997,881.84,1468.579998,880.34Q1469.440002,878.84,1470.899994,878.040001Q1472.360001,877.240002,1474.159996,877.240002Q1475.959999,877.240002,1477.440002,878.040001Q1478.919998,878.84,1479.779999,880.34Q1480.639999,881.84,1480.639999,883.84ZM1477.440002,883.84Q1477.440002,882.200001,1476.5,881.18Q1475.559998,880.16,1474.159996,880.16Q1472.799995,880.16,1471.860001,881.18Q1470.919998,882.200001,1470.919998,883.84Q1470.919998,885.48,1471.839996,886.5Q1472.759995,887.52,1474.159996,887.52Q1475.559998,887.52,1476.5,886.5Q1477.440002,885.48,1477.440002,883.84Z" fill="#B9B9B9" fill-opacity="1"/></g><g><path d="M1212.639999,871.200001Q1208.68,871.640001,1204.719999,872.040001Q1200.76,872.440001,1196.799999,872.84Q1195.719999,873,1193.16,873.24L1192.28,870.200001Q1193.2,869.880001,1193.66,869.6Q1194.12,869.32,1194.559999,868.84Q1196.119999,867.200001,1198.279999,863.440001Q1200.439999,859.6800003,1202.16,856.1599998L1205.199999,857.4400024Q1203.439999,860.9200001,1201.42,864.380001Q1199.4,867.84,1197.799999,869.880001L1204.519999,869.16Q1208.719999,868.68,1211.199999,868.48Q1209.199999,864.720001,1207.639999,862.3600006L1210.439999,860.7600002Q1211.92,863.16,1213.880001,866.620001Q1215.84,870.08,1217.079998,872.640001L1214.16,874.280001L1212.639999,871.200001ZM1185.7999997,857.4400024Q1187.2399998,858.3600006,1189.8000001999999,860.2000008Q1192.36,862.0400009,1193.759999,863.16L1191.88,865.880001Q1190.599999,864.720001,1188.0799999,862.8800011Q1185.5599999,861.0400009,1183.9599998,860.0400009L1185.7999997,857.4400024ZM1189.6399994,875.200001Q1188.0799999,873.880001,1185.6799998,872.1Q1183.28,870.32,1181.7199999,869.32L1183.5599999,866.640001Q1185.0799999,867.6,1187.4400001,869.34Q1189.8000001999999,871.08,1191.48,872.440001L1189.6399994,875.200001ZM1197.92,892.880001L1194.759999,892.880001L1194.759999,876.48L1214.599998,876.48L1214.599998,892.919998L1211.439999,892.919998L1211.439999,890.720001L1197.92,890.720001L1197.92,892.880001ZM1182.8399999,891.52Q1185.8399997,884.799999,1188.4799995,877.720001L1191.559999,878.959999Q1188.8800001,886.279999,1186.04,892.799999L1182.8399999,891.52ZM1211.439999,887.68L1211.439999,879.440001L1197.92,879.440001L1197.92,887.68L1211.439999,887.68ZM1247.839996,884.120001L1247.839996,888.439999L1258.520004,888.439999L1258.520004,891.360001L1234.32,891.360001L1234.32,888.439999L1244.839996,888.439999L1244.839996,884.120001L1235.84,884.120001L1235.84,881.24L1244.839996,881.24L1244.839996,876.880001L1236.559998,876.880001L1236.559998,858.6000004L1256.080002,858.6000004L1256.080002,876.880001L1247.839996,876.880001L1247.839996,881.24L1256.959999,881.24L1256.959999,884.120001L1247.839996,884.120001ZM1234.439999,887.040001Q1232.799999,887.32,1228.700001,888.259998Q1224.599998,889.200001,1222.119999,889.799999L1221.639999,886.799999Q1223.360001,886.52,1226.880001,885.68L1226.880001,874.959999L1222.48,874.959999L1222.48,872L1226.880001,872L1226.880001,862.8400002L1222.16,862.8400002L1222.16,859.8800011L1234.400002,859.8800011L1234.400002,862.8400002L1229.919998,862.8400002L1229.919998,872L1234.16,872L1234.16,874.959999L1229.919998,874.959999L1229.919998,885Q1233.48,884.16,1234.279999,883.92L1234.439999,887.040001ZM1244.839996,866.4L1244.839996,861.4400005L1239.639999,861.4400005L1239.639999,866.4L1244.839996,866.4ZM1247.839996,866.4L1253.080002,866.4L1253.080002,861.4400005L1247.839996,861.4400005L1247.839996,866.4ZM1239.639999,869.16L1239.639999,874.08L1244.839996,874.08L1244.839996,869.16L1239.639999,869.16ZM1247.839996,869.16L1247.839996,874.08L1253.080002,874.08L1253.080002,869.16L1247.839996,869.16ZM1288.28,877.76Q1290.2,879.959999,1292.54,881.459999Q1294.88,882.959999,1298.48,884.440001L1297.12,887.200001Q1292.8,885.240002,1289.9,883.08Q1287,880.92,1284.72,877.76L1275.160004,877.76Q1273.32,880.48,1270.160004,882.959999Q1267,885.439999,1262.760002,887.48L1261.400002,884.720001Q1268.160004,881.76,1271.599998,877.76L1261.959999,877.76L1261.959999,875.16L1269.080002,875.16L1269.080002,862.4400005L1263.279999,862.4400005L1263.279999,859.9200001L1269.080002,859.9200001L1269.080002,856.8400002L1272.199997,856.8400002L1272.199997,859.9200001L1287.68,859.9200001L1287.68,856.8400002L1290.8,856.8400002L1290.8,859.9200001L1296.64,859.9200001L1296.64,862.4400005L1290.8,862.4400005L1290.8,875.16L1298,875.16L1298,877.76L1288.28,877.76ZM1287.68,865.040001L1287.68,862.4400005L1272.199997,862.4400005L1272.199997,865.040001L1287.68,865.040001ZM1287.68,867.560001L1272.199997,867.560001L1272.199997,870.120001L1287.68,870.120001L1287.68,867.560001ZM1287.68,872.559999L1272.199997,872.559999L1272.199997,875.16L1287.68,875.16L1287.68,872.559999ZM1289.36,885.599998L1281.52,885.599998L1281.52,888.799999L1296.32,888.799999L1296.32,891.52L1263.519997,891.52L1263.519997,888.799999L1278.400002,888.799999L1278.400002,885.599998L1270.400002,885.599998L1270.400002,883.040001L1278.400002,883.040001L1278.400002,879.360001L1281.52,879.360001L1281.52,883.040001L1289.36,883.040001L1289.36,885.599998ZM1321.6399999999999,879.040001L1321.6399999999999,888.439999L1337.52,888.439999L1337.52,891.400002L1302.56,891.400002L1302.56,888.439999L1318.44,888.439999L1318.44,879.040001L1304.72,879.040001L1304.72,876L1318.44,876L1318.44,871.280001L1309.3600000000001,871.280001L1309.3600000000001,868.76Q1306.56,870.4,1303,872.040001L1301.52,869.08Q1307.44,866.6,1311.60001,863.58Q1315.75999,860.5600014,1318.60001,856.7999992L1321.6399999999999,856.7999992Q1327.48,864.400002,1338.60001,868.68L1337.23999,871.720001Q1333.88,870.360001,1330.67999,868.52L1330.67999,871.280001L1321.6399999999999,871.280001L1321.6399999999999,876L1335.3600000000001,876L1335.3600000000001,879.040001L1321.6399999999999,879.040001ZM1320.12,859.8800011Q1316.3600000000001,864.480001,1310.16,868.280001L1330.28,868.280001Q1323.84,864.440001,1320.12,859.8800011ZM1325.08,885.919998Q1328.8,881.68,1330.56,879.24L1333.12,881.08Q1329.8,885.32,1327.32001,888.040001L1325.08,885.919998ZM1309.28,879.360001Q1310.52,880.720001,1312.06,882.52Q1313.60001,884.32,1314.92,885.959999L1312.60001,887.959999Q1308.8,883.24,1307.08,881.360001L1309.28,879.360001ZM1377.75999,882.16Q1377.60001,886.16,1377.52,887.360001Q1377.39999,889.080002,1376.88,890.060001Q1376.3600000000001,891.040001,1375.2,891.580002Q1374.04001,892.119999,1371.95999,892.32Q1368.75999,892.639999,1365.95999,892.639999Q1363.2,892.639999,1359.92,892.32Q1357.08,892.040001,1355.89999,890.759998Q1354.72,889.48,1354.72,886.439999L1354.72,872.640001L1352.2,873.440001L1351.44,870.52L1354.72,869.52L1354.72,860.0400009L1357.75999,860.0400009L1357.75999,868.560001L1363.08,866.92L1363.08,856.5600014L1366.12,856.5600014L1366.12,865.960001L1375.44,863.08Q1375.44,865.6,1375.2,870.48Q1374.95999,875.360001,1374.72,877.280001Q1374.44,879.560001,1373.60001,880.52Q1372.75999,881.48,1370.72,881.48Q1369.16,881.48,1368,881.279999L1367.39999,878.280001Q1368.48,878.6,1369.72,878.6Q1370.6399999999999,878.6,1371.06,878Q1371.48,877.400002,1371.72,875.84Q1372.2,872.52,1372.2,867.16L1366.12,869.08L1366.12,885.119999L1363.08,885.119999L1363.08,870.040001L1357.75999,871.68L1357.75999,885.360001Q1357.75999,886.84,1357.98,887.599998Q1358.2,888.360001,1358.88,888.740002Q1359.56,889.119999,1361,889.32Q1363.6399999999999,889.639999,1365.84,889.639999Q1368.2,889.639999,1370.88,889.32Q1372.3600000000001,889.119999,1373.10001,888.779999Q1373.84,888.439999,1374.12,887.779999Q1374.39999,887.119999,1374.44,885.880001Q1374.56,883.6,1374.56,881.560001L1377.75999,882.16ZM1350.72,865.960001Q1346.84,862.8400002,1343.39999,860.2399998L1345.2,857.7200012Q1348.52,860.1599998,1352.52,863.32L1350.72,865.960001ZM1349,875.360001Q1343.67999,871.200001,1341.3600000000001,869.52L1343.16,866.92Q1346.2,869.120001,1350.84,872.68L1349,875.360001ZM1342.48,891.279999Q1343.60001,888.84,1345.67999,884.02Q1347.75999,879.200001,1348.3600000000001,877.48L1351.28,878.68Q1347.12,888.32,1345.39999,892.599998L1342.48,891.279999Z" fill="#FFFFFF" fill-opacity="1"/></g><rect x="873" y="308" width="66" height="9" rx="0" fill="#16AC67" fill-opacity="1"/><rect x="873" y="431" width="66" height="9" rx="0" fill="#F2A40D" fill-opacity="1"/><rect x="873" y="762" width="66" height="9" rx="0" fill="#D23E32" fill-opacity="1"/><rect x="874" y="918" width="66" height="9" rx="0" fill="#13D17A" fill-opacity="1"/><rect x="450" y="918" width="66" height="9" rx="0" fill="#F9AA01" fill-opacity="1"/><rect x="1298" y="918" width="66" height="9" rx="0" fill="#F12F26" fill-opacity="1"/><g><path d="M578.424999,110.620003L564.514999,110.620003Q564.189999,111.855003,562.824997,116.08000200000001L575.824997,116.08000200000001L575.824997,149.424999Q575.824997,152.805,574.98,154.625Q574.134998,156.445,572.282497,157.192497Q570.429996,157.940002,566.984997,158.135002Q563.539997,158.264999,560.029999,157.809998L558.664997,151.634998Q561.914997,152.025002,565.75,152.025002Q567.309998,152.025002,567.927498,151.212502Q568.544998,150.400002,568.544998,148.450001L568.544998,132.849998L564.579998,137.400002Q564.189999,136.945,562.174999,135.060001L562.174999,151.310001L536.824999,151.310001L536.824999,135.385002L533.834999,137.724998L530.844999,133.825001L530.844999,158.07L523.5649996,158.07L523.5649996,116.08000200000001L536.045,116.08000200000001L534.68,110.620003L520.5749998,110.620003L520.5749998,103.730003L545.014999,103.730003Q543.259998,99.9600029,542.804998,99.1150017L551.449997,97.6200027Q552.294998,99.3100014,554.244999,103.730003L578.424999,103.730003L578.424999,110.620003ZM554.829998,116.08000200000001Q555.934998,112.83000200000001,556.584999,110.620003L542.285,110.620003Q542.934999,112.76500300000001,543.779999,116.08000200000001L554.829998,116.08000200000001ZM530.844999,131.875Q538.254999,126.54499799999999,542.089998,122.645L530.844999,122.645L530.844999,131.875ZM559.704998,132.785Q556.389999,129.730003,552.489998,126.41500099999999L556.324997,122.645L542.74,122.645L547.094999,126.610001Q545.014999,128.690002,540.074999,132.785L559.704998,132.785ZM568.544998,122.645L557.82,122.645Q560.289997,124.66000199999999,563.344997,127.325001Q566.399998,129.990002,568.544998,131.940002L568.544998,122.645ZM543.714998,144.875L555.349998,144.875L555.349998,139.220001L543.714998,139.220001L543.714998,144.875ZM626.2,136.620003L626.2,148.32L643.55499,148.32L643.55499,156.185001L585.510002,156.185001L585.510002,148.32L602.9300000000001,148.32L602.9300000000001,136.425003L596.8199999999999,139.415001Q594.6750030000001,133.5,591.327499,125.57Q587.979996,117.639999,585.639999,112.76500300000001L593.0500030000001,109.450001Q594.8050000000001,112.83000200000001,597.729996,119.427502Q600.654999,126.025002,602.9300000000001,131.550003L602.9300000000001,99.1150017L611.25,99.1150017L611.25,148.32L617.88,148.32L617.88,99.1150017L626.2,99.1150017L626.2,132.459999Q628.8,127.195,631.465,120.95500200000001Q634.13,114.715,635.95,109.710003L643.75,113.025002Q641.735,118.16,638.0625,126.317501Q634.39,134.474998,631.725,139.610001L626.2,136.620003ZM663.50999,112.895Q661.755,111.010002,658.7,107.95500200000001Q655.645,104.900002,653.30499,102.625L658.44,97.1650009Q662.2099900000001,100.2200012,668.97,106.980003L663.50999,112.895ZM670.92,101.3900032L706.67,101.3900032L706.67,148.060001Q706.67,152.220001,705.75999,154.365002Q704.85001,156.509998,702.705,157.322502Q700.56,158.135002,696.39999,158.135002Q694.06,158.135002,691.005,157.809998L689.38,150.139999Q692.435,150.595001,694.7099900000001,150.595001Q696.595,150.595001,697.375,150.27Q698.155,149.945,698.41499,148.9375Q698.675,147.93,698.675,145.525002L698.675,109.125L670.92,109.125L670.92,101.3900032ZM689.44501,124.985001L689.44501,144.875Q689.44501,148.645,688.63251,150.5625Q687.82001,152.48,685.935,153.195Q684.05,153.91,680.345,153.91Q677.67999,153.91,674.105,153.584999L672.675,146.564999Q675.86,147.02,677.875,147.02Q679.63,147.02,680.41,146.727501Q681.19,146.435001,681.45,145.654999Q681.7099900000001,144.875,681.7099900000001,143.055L681.7099900000001,131.029999Q674.42999,141.755001,664.875,147.994999L660.19501,141.885002L660.19501,158.004997L652.395,158.004997L652.395,112.960003L660.19501,112.960003L660.19501,141.755001Q671.31,134.669998,677.875,124.985001L663.25,124.985001L663.25,117.965L681.7099900000001,117.965L681.7099900000001,111.010002L689.44501,111.010002L689.44501,117.965L696.3349900000001,117.965L696.3349900000001,124.985001L689.44501,124.985001ZM769.39499,142.599998Q763.61,134.93,757.825,128.43L757.825,158.135002L749.765,158.135002L749.765,130.510002Q745.47501,136.620003,739.495,143.185001L733.97,136.620003Q739.95,131.029999,744.30499,124.400002Q748.66,117.77,751.91,109.905003L738.19501,109.905003L738.19501,101.8450012L772.97,101.8450012L772.97,109.905003L760.36,109.905003Q759.19,113.09,757.825,116.145L757.825,124.27L761.3349900000001,121.150002Q764.51999,124.335001,768.28999,128.625Q772.06,132.915001,775.04999,136.685001L769.39499,142.599998ZM729.67999,143.315002L736.11501,142.014999L736.895,149.814999Q734.295,150.334999,726.88499,151.57Q719.47501,152.805,714.86,153.52L713.755,146.110001Q719.08501,145.200001,722.00999,144.68L722.00999,129.794998L715.38,129.794998L715.38,122.125002L722.00999,122.125002L722.00999,110.295002L715.05499,110.295002L715.05499,102.6900024L736.44,102.6900024L736.44,110.295002L729.67999,110.295002L729.67999,122.125002L735.855,122.125002L735.855,129.794998L729.67999,129.794998L729.67999,143.315002ZM808.2650100000001,131.875L785.64499,131.875L785.64499,107.110001L796.30499,107.110001Q793.89999,103.730003,792.07999,101.5200005L798.32001,97.2300034L799.42499,98.5950012Q800.26999,99.6350021,802.1225,101.9750023Q803.97501,104.31500199999999,804.495,105.095001L801.63501,107.110001L812.62,107.110001Q817.625,100.2200012,819.185,97.3600006L826.01001,101.3900032Q824.8399999999999,103.34,822.04498,107.110001L832.70499,107.110001L832.70499,131.875L810.92999,131.875Q811.255,132.330002,812.0350000000001,133.240002Q816.51999,138.959999,817.88501,140.779999L811.7099900000001,145.135002Q807.03,138.440002,804.0400099999999,134.800003L808.2650100000001,131.875ZM824.905,114.39000300000001L793.57501,114.39000300000001L793.57501,124.790001L824.905,124.790001L824.905,114.39000300000001ZM830.56,134.02Q834.5899999999999,140.715,839.9849899999999,150.139999L832.9649999999999,153.715Q831.47,150.724998,828.80499,145.947502Q826.1400100000001,141.169998,824.19,137.919998L830.56,134.02ZM778.29999,151.634998Q780.25,148.125,782.13501,143.639999Q784.01999,139.154999,784.995,135.514999L792.3399999999999,137.334999Q791.10501,141.495003,789.1875,146.467499Q787.26999,151.439999,785.57999,154.884998L778.29999,151.634998ZM818.405,141.169998L825.94501,142.794998L825.3599899999999,150.205002Q825.10001,153,824.06,154.494999Q823.01999,155.989998,821.16751,156.607498Q819.315,157.224998,816.065,157.41999800000002Q813.85501,157.550003,809.23999,157.550003Q804.69,157.550003,802.4150099999999,157.41999800000002Q799.1650099999999,157.224998,797.3775,156.477501Q795.5899999999999,155.73,794.81,153.91Q794.03,152.09,794.03,148.645L794.03,135.645L801.82999,135.645L801.82999,146.760002Q801.82999,148.645,802.48001,149.327499Q803.13,150.010002,805.14499,150.139999Q807.35501,150.334999,809.69501,150.334999Q812.0350000000001,150.334999,814.17999,150.139999Q816.3900100000001,150.010002,817.2025100000001,149.392502Q818.0150100000001,148.775002,818.14499,146.825001L818.405,141.169998ZM847.20001,158.525002L847.20001,100.4800034L901.7349899999999,100.4800034L901.7349899999999,158.525002L894.45499,158.525002L894.45499,155.924999L854.54501,155.924999L854.54501,158.525002L847.20001,158.525002ZM854.54501,149.165001L894.45499,149.165001L894.45499,107.305L854.54501,107.305L854.54501,149.165001ZM880.87,124.01Q885.41998,125.57,893.80499,127.325001L891.20499,133.630001Q880.2850000000001,130.705002,874.37,127.715Q870.92499,129.404999,867.6099899999999,130.575001Q869.16998,130.900002,876.8399999999999,132.459999Q880.54498,133.110001,884.185,133.889999L883.27499,139.544998Q880.48001,138.895,866.70001,136.230003L864.685,135.84L865.4649999999999,131.419998Q861.04501,132.980003,857.47,134.084999L854.87,127.974998Q862.7349899999999,125.95999900000001,868.13,123.815001Q865.3349900000001,121.670002,863.5150100000001,119.785Q861.435,121.735001,858.70499,123.815001L854.935,119.200001Q861.23999,114.45500200000001,865.85501,107.695004L872.03,109.060001Q871.51001,109.84,871.12,110.425003Q870.73001,111.010002,870.405,111.465L890.42499,111.465L890.42499,116.600002Q885.095,121.345001,880.87,124.01ZM868.26001,116.600002Q870.6650099999999,118.94000199999999,874.30499,121.085001Q878.26999,119.07,881.13,116.600002L868.26001,116.600002ZM860.39499,138.115002L865.26999,139.025002Q881.7149999999999,142.209999,887.23999,143.380001L886.20001,149.165001Q879.04999,147.669998,859.54999,143.900002L860.39499,138.115002ZM948.405,129.145Q948.405,119.98,951.4599900000001,112.212502Q954.5150100000001,104.445004,959.845,99.0500031L968.62,99.0500031Q963.2900099999999,105.485001,960.495,112.635002Q957.70001,119.785,957.70001,129.145Q957.70001,138.57,960.495,145.720001Q963.2900099999999,152.869999,968.62,159.239998L959.845,159.239998Q954.5150100000001,153.845001,951.4599900000001,146.110001Q948.405,138.375,948.405,129.145ZM984.2850000000001,115.560001Q982.7900099999999,112.960003,980.19,108.93Q977.5899999999999,104.900002,975.9649999999999,102.8200035L982.39999,98.3350029Q984.0899999999999,100.4800034,986.78751,104.380001Q989.4849899999999,108.280003,991.1099899999999,110.81500199999999L984.2850000000001,115.560001ZM1004.76001,149.814999Q1011.065,150.139999,1016.005,150.139999Q1024.715,150.139999,1034.59497,149.424999L1033.09998,156.900002Q1025.495,157.29000100000002,1018.14999,157.29000100000002Q1010.935,157.29000100000002,1003.5899999999999,156.900002Q996.70001,156.509998,992.7025100000001,154.787498Q988.70499,153.064999,985.065,148.904999Q984.935,149.099998,981.29501,153.584999Q978.5,157.029999,978.1099899999999,157.485001L973.29999,150.334999L980.8399999999999,141.82L980.8399999999999,127.06500199999999L974.60001,127.06500199999999L974.60001,119.200001L988.70499,119.200001L988.70499,142.145Q990.7850000000001,145.07,993.2225000000001,146.727501Q995.6600000000001,148.385002,999.29999,149.165001L996.17999,143.77Q1003.52499,141.625,1007.42499,139.935001Q1004.37,137.724998,999.755,134.669998Q997.6099899999999,136.489998,995.26999,138.375L990.9150099999999,132.525002Q994.42499,130.120003,997.935,126.870003Q1001.44501,123.620001,1004.04498,120.305L993.45001,120.305L993.45001,100.8050003L1031.86499,100.8050003L1031.86499,120.305L1012.755,120.305Q1011.5849900000001,122.060001,1010.22,123.815001L1030.5,123.815001L1030.5,129.990002Q1026.98999,134.669998,1023.38251,138.017502Q1019.77499,141.365002,1014.6400100000001,144.192501Q1009.505,147.02,1001.89999,149.555Q1002.94,149.685001,1004.76001,149.814999ZM1004.63,106.850002L1000.405,106.850002L1000.405,114.130001L1004.63,114.130001L1004.63,106.850002ZM1010.4150099999999,106.850002L1010.4150099999999,114.130001L1014.89999,114.130001L1014.89999,106.850002L1010.4150099999999,106.850002ZM1020.75,114.130001L1024.91,114.130001L1024.91,106.850002L1020.75,106.850002L1020.75,114.130001ZM1004.565,130.25Q1009.11499,132.980003,1011.45499,134.540001L1007.62,139.805Q1011.845,137.919998,1014.70499,135.7425Q1017.565,133.565002,1020.75,129.990002L1004.76001,129.990002L1004.565,130.25ZM1063.39001,144.549999L1057.995,145.459999L1057.995,158.58999599999999L1050.9099700000002,158.58999599999999L1050.9099700000002,146.760002L1039.92499,148.84L1039.27502,141.560001Q1040.38,141.43,1042.03748,141.137501Q1043.69501,140.845001,1045.51501,140.584999Q1047.07501,140.260002,1048.44,140.065002Q1049.80499,139.870003,1050.9099700000002,139.674999L1050.9099700000002,132.654999L1040.315,132.654999L1040.315,125.310001Q1042.20001,120.95500200000001,1044.60498,113.025002L1040.25,113.025002L1040.25,106.26500300000001L1046.48999,106.26500300000001Q1047.33502,103.01500300000001,1048.245,98.8550034L1055.13501,99.3100014Q1054.1599700000002,103.34,1053.315,106.26500300000001L1063.065,106.26500300000001L1063.065,113.025002L1051.495,113.025002Q1049.2849700000002,120.889999,1047.33502,125.83000200000001L1051.23499,125.83000200000001L1051.23499,115.69000199999999L1057.995,115.69000199999999L1057.995,125.83000200000001L1062.73999,125.83000200000001L1062.73999,132.654999L1057.995,132.654999L1057.995,138.440002L1063.19501,137.529999L1063.39001,144.549999ZM1066.38,100.4150009L1095.435,100.4150009L1095.435,115.950001L1066.38,115.950001L1066.38,100.4150009ZM1073.53003,110.295002L1088.21997,110.295002L1088.21997,106.33000200000001L1073.53003,106.33000200000001L1073.53003,110.295002ZM1094.71997,145.849998L1099.2050199999999,145.654999L1099.2050199999999,152.220001L1094.71997,152.415001L1094.71997,158.525002L1087.63501,158.525002L1087.63501,152.740002L1062.5449800000001,153.91L1062.47998,147.41L1066.64001,147.215L1066.64001,124.725L1063.65002,124.725L1063.65002,118.745003L1098.42499,118.745003L1098.42499,124.725L1094.71997,124.725L1094.71997,145.849998ZM1087.63501,128.105003L1087.63501,124.725L1073.72498,124.725L1073.72498,128.105003L1087.63501,128.105003ZM1087.63501,133.825001L1073.72498,133.825001L1073.72498,137.205002L1087.63501,137.205002L1087.63501,133.825001ZM1073.72498,142.924999L1073.72498,146.889999L1087.63501,146.240002L1087.63501,142.924999L1073.72498,142.924999ZM1121.63,112.245003L1127.87,115.170002Q1120.71997,129.014999,1117.3400299999998,133.565002Q1118.77002,133.175003,1124.22998,131.68L1126.17999,131.095001L1126.31,138.505001Q1117.98999,140.065002,1111.42499,141.82Q1110.77502,141.950001,1107.84998,142.794998L1106.09497,134.995003Q1107.46002,134.605003,1108.20752,134.052498Q1108.9550199999999,133.5,1109.79999,132.264999Q1111.88,129.470001,1115.13,124.01Q1112.01001,124.465,1109.28003,125.115002L1106.22498,125.89500000000001L1104.5349700000002,118.420002Q1105.38,118.030003,1105.83502,117.672501Q1106.28998,117.31500199999999,1106.745,116.665001Q1108.10999,114.780003,1111.0025,108.995003Q1113.89502,103.210003,1115.97498,98.2700005L1122.6699800000001,101Q1120.84998,105.095001,1117.98999,110.6525Q1115.13,116.210003,1113.70001,118.355L1119.03003,116.990002L1121.63,112.245003ZM1164.14001,106.33000200000001L1164.14001,113.675003L1148.995,113.675003L1148.995,120.240002L1161.86499,120.240002L1161.86499,127.58499900000001L1128.9099700000002,127.58499900000001L1128.9099700000002,120.240002L1141.065,120.240002L1141.065,113.675003L1127.2849700000002,113.675003L1127.2849700000002,106.33000200000001L1141.065,106.33000200000001L1141.065,98.7250023L1148.995,98.7250023L1148.995,106.33000200000001L1164.14001,106.33000200000001ZM1137.16498,158.45999899999998L1129.36499,158.45999899999998L1129.36499,132.525002L1161.02002,132.525002L1161.02002,158.45999899999998L1153.15503,158.45999899999998L1153.15503,155.145L1137.16498,155.145L1137.16498,158.45999899999998ZM1153.15503,147.93L1153.15503,139.674999L1137.16498,139.674999L1137.16498,147.93L1153.15503,147.93ZM1104.7949800000001,149.294998Q1109.08502,148.385002,1115.6825,146.857498Q1122.28003,145.330002,1126.8300199999999,144.224998L1127.21997,152.09Q1123.77502,152.805,1115.52002,154.625L1105.7050199999999,156.77L1104.7949800000001,149.294998ZM1228.0349700000002,106.26500300000001Q1228.09998,108.540001,1228.09998,113.415001Q1228.09998,132.654999,1226.86499,148.32Q1226.47498,153.389999,1224.2324800000001,155.4375Q1221.98999,157.485001,1216.9199800000001,157.550003Q1211.52502,157.550003,1207.755,157.224998L1206.13,149.619999Q1210.67999,150.075001,1214.38501,150.075001Q1216.46497,150.075001,1217.4724700000002,149.6525Q1218.47998,149.23,1218.90247,148.157501Q1219.32501,147.084999,1219.52002,144.810001L1219.65002,143.445L1213.995,145.915001L1212.435,141.495003L1200.73499,143.965L1195.01501,145.200001L1192.5449800000001,138.049999Q1193.52002,137.66,1193.8775,137.302502Q1194.23499,136.945,1194.5275299999998,136.392502Q1194.82001,135.84,1195.01501,135.580002Q1196.57501,133.044998,1198.97998,127.22750099999999Q1201.38501,121.41000199999999,1202.685,117.055L1209.51001,119.33000200000001Q1208.0800199999999,123.620001,1205.51251,129.470001Q1202.94501,135.32,1201.77502,137.139999L1210.09497,135.32Q1208.40503,131.029999,1207.10498,128.300003L1213.08502,125.700001Q1217.04999,134.540001,1219.71497,141.625Q1220.42999,131.615002,1220.42999,119.655003L1220.36499,113.740002L1201.64502,113.740002Q1198.84998,120.240002,1195.7949800000001,124.855001L1190.2050199999999,120.175003Q1191.17999,118.68,1191.89502,117.31500199999999L1185.71997,117.31500199999999L1185.71997,120.95500200000001Q1190.59497,125.310001,1194.625,129.990002L1190.27002,135.32Q1188.51501,132.849998,1185.71997,129.599998L1185.71997,158.45999899999998L1178.57001,158.45999899999998L1178.57001,133.565002Q1175.77502,139.870003,1172.65503,144.029999L1168.23499,137.205002Q1171.22498,133.044998,1173.9550199999999,127.845001Q1176.685,122.645,1178.57001,117.445L1178.57001,117.31500199999999L1170.57501,117.31500199999999L1170.57501,109.775002L1178.57001,109.775002L1178.57001,98.5950012L1185.71997,98.5950012L1185.71997,109.775002L1192.02502,109.775002L1192.02502,117.120003Q1194.495,112.700001,1196.41248,107.695004Q1198.3300199999999,102.6900024,1199.37,97.9450035L1206.7150299999998,99.6350021Q1205.935,102.6900024,1204.63501,106.26500300000001L1228.0349700000002,106.26500300000001ZM1255.59497,129.145Q1255.59497,138.310001,1252.53998,146.077499Q1249.48499,153.845001,1244.15503,159.239998L1235.38,159.239998Q1240.71002,152.805,1243.505,145.654999Q1246.29999,138.505001,1246.29999,129.145Q1246.29999,119.720001,1243.505,112.57Q1240.71002,105.420002,1235.38,99.0500031L1244.15503,99.0500031Q1249.48499,104.445004,1252.53998,112.18Q1255.59497,119.915001,1255.59497,129.145Z" fill="#FFFFFF" fill-opacity="1"/></g></g></svg>